<svg width="16" height="24" viewBox="0 0 16 24" fill="none" xmlns="http://www.w3.org/2000/svg">
<path d="M10.986 15.424L11.736 21.076L8.515 19.143C8.204 18.959 7.812 18.947 7.486 19.143L4.265 21.076L5.016 15.425C5.939 15.796 6.947 16 8 16C9.054 16 10.062 15.796 10.986 15.424ZM11.331 12.991C11.273 13.021 11.219 13.056 11.169 13.096C10.892 13.269 10.599 13.42 10.294 13.546C9.589 13.838 8.815 14 8 14C7.185 14 6.411 13.838 5.706 13.546C4.973 13.242 4.312 12.797 3.758 12.243C3.204 11.689 2.758 11.028 2.455 10.295C2.162 9.589 2 8.815 2 8C2 7.185 2.162 6.411 2.454 5.706C2.758 4.973 3.203 4.312 3.757 3.758C4.311 3.204 4.972 2.758 5.705 2.455C6.411 2.162 7.185 2 8 2C8.815 2 9.589 2.162 10.294 2.454C11.027 2.758 11.688 3.203 12.242 3.757C12.796 4.311 13.242 4.972 13.545 5.705C13.838 6.411 14 7.185 14 8C14 8.815 13.838 9.589 13.546 10.294C13.242 11.027 12.797 11.688 12.243 12.242C11.965 12.52 11.66 12.771 11.332 12.99L11.331 12.991ZM3.14 14.355L2.009 22.868C1.936 23.415 2.321 23.918 2.869 23.991C3.103 24.022 3.33 23.969 3.515 23.857L8 21.166L12.486 23.857C12.96 24.141 13.574 23.988 13.858 23.514C13.98 23.311 14.021 23.083 13.992 22.868L12.862 14.353C13.142 14.138 13.408 13.905 13.657 13.656C14.394 12.919 14.988 12.038 15.394 11.059C15.785 10.116 16 9.082 16 8C16 6.918 15.785 5.884 15.394 4.94C14.988 3.96 14.394 3.08 13.657 2.343C12.92 1.606 12.039 1.012 11.06 0.606C10.116 0.215 9.082 0 8 0C6.918 0 5.884 0.215 4.94 0.606C3.96 1.012 3.08 1.606 2.343 2.343C1.606 3.08 1.012 3.961 0.606 4.94C0.215 5.884 0 6.918 0 8C0 9.082 0.215 10.116 0.606 11.06C1.012 12.04 1.606 12.92 2.343 13.657C2.593 13.907 2.859 14.14 3.139 14.355H3.14Z" fill="#637982"/>
</svg>
