<svg width="18" height="12" viewBox="0 0 18 12" fill="none" xmlns="http://www.w3.org/2000/svg">
<path d="M5.20612 0C5.7328 0 6.21166 0.0450161 6.64663 0.141238C7.07935 0.238585 7.44961 0.388827 7.76078 0.598714C8.06858 0.808602 8.31054 1.08658 8.48104 1.43883C8.64985 1.79164 8.73594 2.22661 8.73594 2.73698C8.73594 3.29237 8.60821 3.75716 8.35556 4.13248C8.10178 4.5078 7.72758 4.80772 7.22846 5.048C7.90821 5.24325 8.4107 5.58819 8.74551 6.07605C9.08144 6.57123 9.24462 7.16375 9.24462 7.84687C9.24462 8.40957 9.14728 8.88956 8.93683 9.2947C8.72694 9.70716 8.43433 10.0448 8.06633 10.3076C7.7062 10.5687 7.27855 10.7577 6.81319 10.8832C6.35571 11.007 5.87404 11.074 5.37999 11.074H0V0.00618954H5.20555V0.00112532L5.20612 0ZM12.7103 9.12477C13.0406 9.44607 13.5155 9.607 14.1311 9.607C14.574 9.607 14.9566 9.49615 15.279 9.27163C15.597 9.05387 15.7894 8.81416 15.8642 8.56657H17.8061C17.504 9.5271 17.02 10.217 16.3808 10.63C15.7433 11.0503 14.9673 11.2529 14.0698 11.2529C13.4418 11.2529 12.8814 11.1556 12.3654 10.953C11.8606 10.7504 11.4352 10.4651 11.0751 10.0977C10.7268 9.73024 10.4578 9.28739 10.2671 8.7697C10.0774 8.25202 9.98739 7.682 9.98739 7.06641C9.98739 6.46375 10.0887 5.91118 10.2896 5.39349C10.4921 4.86849 10.7729 4.43296 11.1297 4.05033C11.5011 3.66769 11.927 3.37902 12.4323 3.1545C12.9376 2.92999 13.4829 2.82983 14.0979 2.82983C14.7805 2.82983 15.3657 2.95306 15.8834 3.22203C16.3859 3.47693 16.7989 3.83706 17.1286 4.27259C17.4589 4.71206 17.6913 5.21793 17.8337 5.78795C17.9761 6.35065 18.0211 6.94317 17.9913 7.5734H12.2219C12.2219 8.20363 12.4318 8.79784 12.7548 9.12252L12.6945 9.14503L12.7103 9.12477ZM5.02718 9.16247C5.2652 9.16247 5.49253 9.13996 5.70692 9.0927C5.92469 9.04768 6.11825 8.9689 6.27919 8.86761C6.43674 8.76633 6.57179 8.62171 6.66914 8.4304C6.76649 8.25033 6.8115 8.00274 6.8115 7.71014C6.8115 7.14744 6.64663 6.74229 6.33152 6.4947C6.00909 6.25443 5.58875 6.13457 5.06375 6.13457H2.43087V9.17316H5.02661V9.15065L5.02718 9.16247ZM15.2363 4.92308C14.9724 4.63441 14.5312 4.4791 13.9933 4.4791C13.6421 4.4791 13.3518 4.53481 13.1183 4.65748C12.8915 4.77002 12.7058 4.92026 12.5629 5.10033C12.4199 5.28039 12.3249 5.46046 12.2686 5.66303C12.2123 5.85829 12.1785 6.03835 12.1673 6.19591H15.7399C15.6876 5.63321 15.4923 5.22074 15.2295 4.92814V4.93546L15.2363 4.92308ZM4.89213 4.46166C5.32259 4.46166 5.67991 4.36094 5.96126 4.15274C6.24205 3.95016 6.3771 3.61254 6.3771 3.14888C6.3771 2.8906 6.32477 2.68015 6.24205 2.51415C6.1447 2.34928 6.01697 2.22155 5.86673 2.12983C5.70917 2.03698 5.52911 1.97227 5.32653 1.93682C5.12396 1.89687 4.9062 1.88111 4.69631 1.88111H2.42356V4.46222H4.89213V4.46166ZM11.7183 0.742203H16.1957V1.83328H11.7183V0.741078V0.742203Z" fill="#637982"/>
</svg>
