<svg width="22" height="24" viewBox="0 0 22 24" fill="none" xmlns="http://www.w3.org/2000/svg">
<path d="M12.337 0.315278C12.127 0.211278 11.911 0.134278 11.689 0.0812777C11.354 0.00227772 11.005 -0.0207223 10.656 0.0192777C10.318 0.0582777 9.983 0.155278 9.662 0.314278L1.659 4.31628C1.273 4.51128 0.935 4.78428 0.667 5.11628C0.455 5.37728 0.286 5.67528 0.172 5.99928C0.06 6.31428 0 6.65028 0 6.99928V16.5183C0 16.9523 0.092 17.3793 0.268 17.7693C0.406 18.0763 0.597 18.3603 0.834 18.6093C1.065 18.8503 1.338 19.0553 1.652 19.2133L9.655 23.2143C9.866 23.3193 10.088 23.3983 10.317 23.4523C10.651 23.5303 11 23.5513 11.348 23.5093C11.685 23.4693 12.019 23.3713 12.336 23.2133L20.34 19.2113C20.726 19.0163 21.064 18.7433 21.332 18.4113C21.544 18.1503 21.713 17.8523 21.827 17.5283C21.94 17.2143 22 16.8783 22 16.5293V6.99228C21.997 6.56028 21.902 6.13528 21.725 5.74728C21.585 5.44128 21.393 5.15828 21.154 4.91128C20.922 4.67228 20.647 4.46828 20.338 4.31428L12.337 0.315278ZM18.759 5.76228L11 9.64128L3.241 5.76128L10.557 2.10328C10.663 2.05028 10.774 2.01928 10.884 2.00628C10.999 1.99328 11.115 2.00028 11.228 2.02728C11.303 2.04528 11.377 2.07128 11.442 2.10328L18.759 5.76228ZM10 11.3773V21.1513L2.547 17.4253C2.444 17.3733 2.354 17.3053 2.279 17.2273C2.201 17.1463 2.138 17.0523 2.091 16.9483C2.032 16.8163 2 16.6703 2 16.5203V7.37828L10 11.3773ZM12 21.1463V11.3773L20 7.37728V16.5293C20 16.6473 19.98 16.7583 19.943 16.8603C19.905 16.9663 19.85 17.0653 19.778 17.1533C19.687 17.2653 19.572 17.3593 19.438 17.4263L12 21.1463Z" fill="#637982"/>
</svg>
