<svg width="20" height="22" viewBox="0 0 20 22" fill="none" xmlns="http://www.w3.org/2000/svg">
<path d="M5 1V2H3C2.595 2 2.207 2.081 1.852 2.228C1.485 2.38 1.155 2.603 0.879 2.879C0.603 3.155 0.38 3.485 0.228 3.852C0.0809999 4.207 0 4.595 0 5V19C0 19.405 0.0809999 19.793 0.228 20.148C0.38 20.516 0.603 20.846 0.879 21.122C1.155 21.398 1.485 21.621 1.853 21.773C2.207 21.919 2.595 22 3 22H17C17.405 22 17.793 21.919 18.148 21.772C18.516 21.62 18.846 21.397 19.122 21.121C19.398 20.845 19.621 20.515 19.773 20.147C19.919 19.793 20 19.405 20 19V5C20 4.595 19.919 4.207 19.772 3.852C19.62 3.484 19.397 3.154 19.121 2.878C18.845 2.602 18.515 2.379 18.147 2.227C17.793 2.081 17.405 2 17 2H15V1C15 0.448 14.552 0 14 0C13.448 0 13 0.448 13 1V2H7V1C7 0.448 6.552 0 6 0C5.448 0 5 0.448 5 1V1ZM18 8H2V5C2 4.863 2.027 4.734 2.075 4.618C2.125 4.496 2.2 4.386 2.293 4.293C2.386 4.2 2.496 4.126 2.618 4.075C2.734 4.027 2.863 4 3 4H5V5C5 5.552 5.448 6 6 6C6.552 6 7 5.552 7 5V4H13V5C13 5.552 13.448 6 14 6C14.552 6 15 5.552 15 5V4H17C17.137 4 17.266 4.027 17.382 4.075C17.504 4.125 17.614 4.2 17.707 4.293C17.8 4.386 17.874 4.496 17.925 4.618C17.973 4.734 18 4.863 18 5V8ZM2 10H18V19C18 19.137 17.973 19.266 17.925 19.382C17.875 19.504 17.8 19.614 17.707 19.707C17.614 19.8 17.504 19.874 17.382 19.925C17.266 19.973 17.137 20 17 20H3C2.863 20 2.734 19.973 2.618 19.925C2.496 19.875 2.386 19.8 2.293 19.707C2.2 19.614 2.126 19.504 2.075 19.382C2.027 19.266 2 19.137 2 19V10Z" fill="#637982"/>
</svg>
