<svg width="13" height="15" viewBox="0 0 13 15" fill="none" xmlns="http://www.w3.org/2000/svg">
<path d="M2.72727 2.72727C2.72727 2.91068 2.76409 3.08727 2.83091 3.24886C2.90045 3.41659 3.00136 3.56591 3.12682 3.69136C3.25227 3.81682 3.40227 3.91773 3.56932 3.98727C3.73091 4.05409 3.9075 4.09091 4.09091 4.09091H8.18182C8.36523 4.09091 8.54182 4.05409 8.70341 3.98727C8.87114 3.91773 9.02045 3.81682 9.14591 3.69136C9.27136 3.56591 9.37227 3.41591 9.44182 3.24886C9.50864 3.08727 9.54545 2.91068 9.54545 2.72727H10.2273C10.3207 2.72727 10.4086 2.74568 10.4877 2.77841C10.5709 2.8125 10.6459 2.86364 10.7093 2.92705C10.7727 2.99045 10.8232 3.06545 10.858 3.14864C10.8907 3.22773 10.9091 3.31568 10.9091 3.40909V12.9545C10.9091 13.048 10.8907 13.1359 10.858 13.215C10.8239 13.2982 10.7727 13.3732 10.7093 13.4366C10.6459 13.5 10.5709 13.5505 10.4877 13.5852C10.4086 13.618 10.3207 13.6364 10.2273 13.6364H2.04545C1.95205 13.6364 1.86409 13.618 1.785 13.5852C1.70182 13.5511 1.62682 13.5 1.56341 13.4366C1.5 13.3732 1.44955 13.2982 1.41477 13.215C1.38205 13.1359 1.36364 13.048 1.36364 12.9545V3.40909C1.36364 3.31568 1.38205 3.22773 1.41477 3.14864C1.44886 3.06545 1.5 2.99045 1.56341 2.92705C1.62682 2.86364 1.70182 2.81318 1.785 2.77841C1.86409 2.74568 1.95205 2.72727 2.04545 2.72727H2.72727ZM4.09091 0C3.9075 0 3.73091 0.0368182 3.56932 0.103636C3.40159 0.173182 3.25159 0.274091 3.12682 0.399545C3.00205 0.525 2.90045 0.674318 2.83091 0.842045C2.76409 1.00364 2.72727 1.18023 2.72727 1.36364H2.04545C1.76932 1.36364 1.50477 1.41886 1.26273 1.51909C1.0125 1.62273 0.7875 1.77477 0.599318 1.96295C0.411136 2.15114 0.259091 2.37614 0.155455 2.62636C0.0552272 2.86841 0 3.13295 0 3.40909V12.9545C0 13.2307 0.0552272 13.4952 0.155455 13.7373C0.259091 13.9882 0.411136 14.2132 0.599318 14.4014C0.7875 14.5895 1.0125 14.7416 1.26341 14.8452C1.50477 14.9448 1.76932 15 2.04545 15H10.2273C10.5034 15 10.768 14.9448 11.01 14.8445C11.2609 14.7409 11.4859 14.5889 11.6741 14.4007C11.8623 14.2125 12.0143 13.9875 12.118 13.7366C12.2175 13.4952 12.2727 13.2307 12.2727 12.9545V3.40909C12.2727 3.13295 12.2175 2.86841 12.1173 2.62636C12.0136 2.37545 11.8616 2.15045 11.6734 1.96227C11.4852 1.77409 11.2602 1.62205 11.0093 1.51841C10.768 1.41886 10.5034 1.36364 10.2273 1.36364H9.54545C9.54545 1.18023 9.50864 1.00364 9.44182 0.842045C9.37227 0.674318 9.27136 0.525 9.14591 0.399545C9.02045 0.274091 8.87045 0.173182 8.70341 0.103636C8.54182 0.0368182 8.36523 0 8.18182 0H4.09091ZM4.09091 1.36364H8.18182V2.72727H4.09091V1.36364Z" fill="#637982"/>
</svg>
