<svg width="15" height="15" viewBox="0 0 15 15" fill="none" xmlns="http://www.w3.org/2000/svg">
<path d="M7.5 15C3.36563 15 0 11.6344 0 7.5C0 3.36563 3.36563 0 7.5 0C11.6344 0 15 3.36563 15 7.5C15 11.6344 11.6344 15 7.5 15ZM13.8248 8.52609C13.6059 8.45719 11.8434 7.93031 9.83484 8.25234C10.6725 10.5548 11.0142 12.4298 11.0798 12.8198C12.5175 11.8481 13.5398 10.3073 13.8267 8.52609H13.8248ZM10.0031 13.4063C9.9075 12.8438 9.53438 10.8862 8.63438 8.55L8.59313 8.56266C4.97438 9.82219 3.68062 12.3281 3.56812 12.5625C4.64953 13.4114 6.01828 13.9162 7.49953 13.9162C8.38687 13.9162 9.23063 13.7348 9.99938 13.4077L10.0031 13.4063ZM2.74078 11.7937C2.88563 11.5439 4.64391 8.63437 7.94812 7.56562C8.0325 7.5375 8.11688 7.51312 8.20125 7.49062C8.03859 7.125 7.86375 6.76125 7.68141 6.40312C4.48125 7.35937 1.37906 7.31859 1.09781 7.3125L1.09547 7.5075C1.09547 9.15328 1.71937 10.6556 2.74172 11.7919L2.74078 11.7937ZM1.22812 6.19688C1.51547 6.20203 4.155 6.21328 7.15125 5.41687C6.09 3.53062 4.94484 1.94297 4.77609 1.71187C2.98359 2.55562 1.64484 4.20563 1.22859 6.19312L1.22812 6.19688ZM6 1.2825C6.17625 1.52016 7.34062 3.10359 8.38875 5.0325C10.6669 4.17938 11.6325 2.88234 11.7469 2.71875C10.6158 1.71234 9.12797 1.1025 7.5 1.1025C6.98437 1.1025 6.48141 1.16484 6 1.28063V1.2825ZM12.4594 3.45938C12.323 3.64078 11.25 5.0175 8.88187 5.98453C9.03187 6.29063 9.17578 6.6 9.30703 6.91313C9.35719 7.02563 9.40078 7.13812 9.44438 7.24453C11.5758 6.97594 13.6945 7.40719 13.9069 7.45078C13.8942 5.93813 13.357 4.55062 12.4631 3.46313L12.4594 3.45938Z" fill="#637982"/>
</svg>
