<svg width="19" height="15" viewBox="0 0 19 15" fill="none" xmlns="http://www.w3.org/2000/svg">
<path d="M1.66667 4.10083L8.68917 9.01667C8.9725 9.2125 9.35167 9.22167 9.645 9.01667L16.6667 4.10083V12.5C16.6667 12.6117 16.6442 12.7175 16.6042 12.8142C16.5617 12.9158 16.4992 13.0092 16.4208 13.0875C16.3425 13.1658 16.2492 13.2283 16.1475 13.2708C16.0508 13.3108 15.945 13.3333 15.8333 13.3333H2.5C2.38833 13.3333 2.2825 13.3108 2.18583 13.2708C2.08417 13.2283 1.99083 13.1658 1.9125 13.0875C1.83417 13.0092 1.77167 12.9158 1.72917 12.8142C1.68917 12.7175 1.66667 12.6117 1.66667 12.5V4.10083ZM0 2.51V12.5C0 12.8358 0.0675 13.1583 0.189167 13.4525C0.316667 13.76 0.503333 14.0358 0.733333 14.2667C0.963333 14.4975 1.24 14.6842 1.5475 14.8108C1.84167 14.9325 2.16417 15 2.5 15H15.8333C16.1692 15 16.4917 14.9325 16.7858 14.8108C17.0933 14.6833 17.3692 14.4967 17.6 14.2667C17.8308 14.0367 18.0175 13.76 18.1442 13.4525C18.2658 13.1583 18.3333 12.8358 18.3333 12.5V2.5C18.3333 2.495 18.3333 2.49 18.3333 2.48583C18.3317 2.155 18.2642 1.83833 18.1442 1.54833C18.0167 1.24083 17.83 0.965 17.6 0.734167C17.37 0.503333 17.0933 0.316667 16.7858 0.19C16.4917 0.0674999 16.1692 0 15.8333 0H2.5C2.16417 0 1.84167 0.0675 1.5475 0.189167C1.24 0.316667 0.964167 0.503333 0.733333 0.733333C0.5025 0.963333 0.316667 1.24 0.189167 1.5475C0.0691667 1.8375 0.00166667 2.155 0 2.48583C0 2.49 0 2.495 0 2.5V2.51ZM16.5783 2.12833L9.16667 7.31583L1.755 2.12833C1.795 2.04917 1.84833 1.97583 1.91167 1.9125C1.99083 1.83333 2.08333 1.77083 2.18583 1.72917C2.2825 1.68917 2.38833 1.66667 2.5 1.66667H15.8333C15.945 1.66667 16.0508 1.68917 16.1475 1.72917C16.2492 1.77167 16.3425 1.83417 16.4208 1.9125C16.4842 1.97583 16.5375 2.04917 16.5775 2.12833H16.5783Z" fill="#637982"/>
</svg>
