<svg width="9" height="15" viewBox="0 0 9 15" fill="none" xmlns="http://www.w3.org/2000/svg">
<path d="M7.5 1.36364V2.72727H6.13636C5.95295 2.72727 5.77636 2.76409 5.61477 2.83091C5.44705 2.90045 5.29773 3.00136 5.17227 3.12682C5.04682 3.25227 4.94591 3.40227 4.87636 3.56932C4.80955 3.73091 4.77273 3.9075 4.77273 4.09091V6.13636C4.77273 6.51273 5.07818 6.81818 5.45455 6.81818H7.30841L6.9675 8.18182H5.45455C5.07818 8.18182 4.77273 8.48727 4.77273 8.86364V13.6364H3.40909V8.86364C3.40909 8.48727 3.10364 8.18182 2.72727 8.18182H1.36364V6.81818H2.72727C3.10364 6.81818 3.40909 6.51273 3.40909 6.13636V4.09091C3.40909 3.72 3.48273 3.36818 3.61568 3.04841C3.75341 2.715 3.95659 2.415 4.20818 2.16273C4.45977 1.91045 4.76045 1.70795 5.09386 1.57023C5.41364 1.43727 5.76545 1.36364 6.13636 1.36364H7.5ZM8.18182 0H6.13636C5.58341 0 5.05432 0.109773 4.57159 0.310227C4.07045 0.5175 3.62045 0.821591 3.24341 1.19864C2.86636 1.57568 2.56295 2.025 2.35568 2.52614C2.15523 3.00886 2.04545 3.53795 2.04545 4.09091V5.45455H0.681818C0.305455 5.45455 0 5.76 0 6.13636V8.86364C0 9.24 0.305455 9.54545 0.681818 9.54545H2.04545V14.3182C2.04545 14.6945 2.35091 15 2.72727 15H5.45455C5.83091 15 6.13636 14.6945 6.13636 14.3182V9.54545H7.5C7.81773 9.54545 8.085 9.32795 8.16136 9.02932L8.84318 6.30205C8.93455 5.93659 8.71227 5.56636 8.34682 5.475C8.29023 5.46068 8.23295 5.45386 8.18182 5.45455H6.13636V4.09091H8.18182C8.55818 4.09091 8.86364 3.78545 8.86364 3.40909V0.681818C8.86364 0.305455 8.55818 0 8.18182 0Z" fill="#637982"/>
</svg>
