<svg width="15" height="25" viewBox="0 0 15 25" fill="none" xmlns="http://www.w3.org/2000/svg">
<path d="M12.5 2.27273V4.54545H10.2273C9.92159 4.54545 9.62727 4.60682 9.35795 4.71818C9.07841 4.83409 8.82955 5.00227 8.62045 5.21136C8.41136 5.42045 8.24318 5.67045 8.12727 5.94886C8.01591 6.21818 7.95455 6.5125 7.95455 6.81818V10.2273C7.95455 10.8545 8.46364 11.3636 9.09091 11.3636H12.1807L11.6125 13.6364H9.09091C8.46364 13.6364 7.95455 14.1455 7.95455 14.7727V22.7273H5.68182V14.7727C5.68182 14.1455 5.17273 13.6364 4.54545 13.6364H2.27273V11.3636H4.54545C5.17273 11.3636 5.68182 10.8545 5.68182 10.2273V6.81818C5.68182 6.2 5.80455 5.61364 6.02614 5.08068C6.25568 4.525 6.59432 4.025 7.01364 3.60455C7.43295 3.18409 7.93409 2.84659 8.48977 2.61705C9.02273 2.39545 9.60909 2.27273 10.2273 2.27273H12.5ZM13.6364 0H10.2273C9.30568 0 8.42386 0.182955 7.61932 0.517045C6.78409 0.8625 6.03409 1.36932 5.40568 1.99773C4.77727 2.62614 4.27159 3.375 3.92614 4.21023C3.59205 5.01477 3.40909 5.89659 3.40909 6.81818V9.09091H1.13636C0.509091 9.09091 0 9.6 0 10.2273V14.7727C0 15.4 0.509091 15.9091 1.13636 15.9091H3.40909V23.8636C3.40909 24.4909 3.91818 25 4.54545 25H9.09091C9.71818 25 10.2273 24.4909 10.2273 23.8636V15.9091H12.5C13.0295 15.9091 13.475 15.5466 13.6023 15.0489L14.7386 10.5034C14.8909 9.89432 14.5205 9.27727 13.9114 9.125C13.817 9.10114 13.7216 9.08977 13.6364 9.09091H10.2273V6.81818H13.6364C14.2636 6.81818 14.7727 6.30909 14.7727 5.68182V1.13636C14.7727 0.509091 14.2636 0 13.6364 0Z" fill="#F9F3ED"/>
</svg>
