<svg width="14" height="15" viewBox="0 0 14 15" fill="none" xmlns="http://www.w3.org/2000/svg">
<path d="M0.263194 4.91614C0.102277 5.0416 0 5.23593 0 5.45412V12.9545C0 13.2306 0.0552297 13.4952 0.155461 13.7372C0.259102 13.9881 0.411155 14.2131 0.599345 14.4013C0.787535 14.5895 1.01255 14.7416 1.26347 14.8452C1.50484 14.9448 1.7694 15 2.04555 15H11.5914C11.8676 15 12.1321 14.9448 12.3742 14.8445C12.6251 14.7409 12.8501 14.5888 13.0383 14.4007C13.2265 14.2125 13.3786 13.9875 13.4822 13.7365C13.5817 13.4952 13.637 13.2306 13.637 12.9545V5.45412C13.6363 5.24956 13.5456 5.04978 13.3738 4.91614L7.23714 0.1432C6.99304 -0.0443088 6.65007 -0.0511272 6.39983 0.1432L0.263194 4.91614ZM9.54588 13.6363V7.49966C9.54588 7.12328 9.24041 6.81782 8.86403 6.81782H4.77294C4.39656 6.81782 4.09109 7.12328 4.09109 7.49966V13.6363H2.04555C1.95213 13.6363 1.86417 13.6179 1.78508 13.5852C1.70189 13.5511 1.62689 13.4999 1.56348 13.4365C1.50007 13.3731 1.44961 13.2981 1.41484 13.2149C1.38211 13.1358 1.3637 13.0479 1.3637 12.9545V5.78754L6.81849 1.54508L12.2733 5.78754V12.9545C12.2733 13.0479 12.2549 13.1358 12.2221 13.2149C12.188 13.2981 12.1369 13.3731 12.0735 13.4365C12.0101 13.4999 11.9351 13.5504 11.8519 13.5852C11.7728 13.6179 11.6848 13.6363 11.5914 13.6363H9.54588ZM5.45479 13.6363V8.18151H8.18218V13.6363H5.45479Z" fill="#637982"/>
</svg>
