<svg width="17" height="18" viewBox="0 0 17 18" fill="none" xmlns="http://www.w3.org/2000/svg">
<path d="M0.316036 5.8986C0.122732 6.04895 0 6.28214 0 6.54417V15.5447C0 15.8761 0.0662755 16.1934 0.186553 16.4843C0.311126 16.7856 0.493384 17.0556 0.719211 17.2814C0.945038 17.5072 1.21505 17.6895 1.51636 17.8141C1.80601 17.9337 2.12327 18 2.45465 18H13.9099C14.2412 18 14.5585 17.9337 14.8494 17.8134C15.1507 17.6889 15.4207 17.5066 15.6465 17.2808C15.8723 17.055 16.0546 16.785 16.1792 16.4836C16.2988 16.194 16.3651 15.8767 16.3651 15.5454V6.54479C16.3645 6.29932 16.2553 6.05938 16.0491 5.89922L8.68515 0.171915C8.39243 -0.0532988 7.98067 -0.0612764 7.68059 0.171915L0.316036 5.8986ZM11.4552 16.3628V8.99882C11.4552 8.54716 11.0889 8.18081 10.6372 8.18081H5.72791C5.27626 8.18081 4.9099 8.54716 4.9099 8.99882V16.3628H2.45526C2.34296 16.3628 2.23741 16.3407 2.14291 16.3014C2.04288 16.2603 1.95328 16.1989 1.87719 16.1228C1.8011 16.0467 1.74034 15.9565 1.69861 15.8571C1.65934 15.762 1.63725 15.6564 1.63725 15.5447V6.94428L8.18317 1.85335L14.7291 6.94428V15.5447C14.7291 15.657 14.707 15.7626 14.6677 15.8571C14.6266 15.9571 14.5653 16.0467 14.4892 16.1228C14.4131 16.1989 14.3229 16.2597 14.2234 16.3014C14.1283 16.3407 14.0228 16.3628 13.9111 16.3628H11.4552ZM6.54592 16.3628V9.81683H9.81858V16.3628H6.54592Z" fill="white"/>
</svg>
