<svg width="20" height="22" viewBox="0 0 20 22" fill="none" xmlns="http://www.w3.org/2000/svg">
<path d="M0.386 7.21002C0.15 7.39402 0 7.67902 0 7.99902V18.999C0 19.404 0.0809999 19.792 0.228 20.147C0.38 20.515 0.603 20.845 0.879 21.121C1.155 21.397 1.485 21.62 1.853 21.772C2.207 21.918 2.595 21.999 3 21.999H17C17.405 21.999 17.793 21.918 18.148 21.771C18.516 21.619 18.846 21.396 19.122 21.12C19.398 20.844 19.621 20.514 19.773 20.146C19.919 19.792 20 19.404 20 18.999V7.99902C19.999 7.69902 19.866 7.40602 19.614 7.21002L10.614 0.210017C10.256 -0.0649833 9.753 -0.0749833 9.386 0.210017L0.386 7.21002ZM14 19.999V10.999C14 10.447 13.552 9.99902 13 9.99902H7C6.448 9.99902 6 10.447 6 10.999V19.999H3C2.863 19.999 2.734 19.972 2.618 19.924C2.496 19.874 2.386 19.799 2.293 19.706C2.2 19.613 2.126 19.503 2.075 19.381C2.027 19.265 2 19.136 2 18.999V8.48802L10 2.26602L18 8.48802V18.999C18 19.136 17.973 19.265 17.925 19.381C17.875 19.503 17.8 19.613 17.707 19.706C17.614 19.799 17.504 19.873 17.382 19.924C17.266 19.972 17.137 19.999 17 19.999H14ZM8 19.999V11.999H12V19.999H8Z" fill="#637982"/>
</svg>
