<svg width="15" height="15" viewBox="0 0 15 15" fill="none" xmlns="http://www.w3.org/2000/svg">
<path d="M4.09091 0C3.53795 0 3.00886 0.109773 2.52614 0.310227C2.025 0.5175 1.575 0.821591 1.19795 1.19795C0.820909 1.57432 0.5175 2.025 0.310227 2.52614C0.109773 3.00886 0 3.53795 0 4.09091V10.9091C0 11.462 0.109773 11.9911 0.310227 12.4739C0.5175 12.975 0.821591 13.425 1.19864 13.802C1.57568 14.1791 2.02568 14.4825 2.52682 14.6905C3.00886 14.8902 3.53795 15 4.09091 15H10.9091C11.462 15 11.9911 14.8902 12.4739 14.6898C12.975 14.4825 13.425 14.1784 13.802 13.8014C14.1791 13.4243 14.4825 12.9743 14.6905 12.4732C14.8902 11.9911 15 11.462 15 10.9091V4.09091C15 3.53795 14.8902 3.00886 14.6898 2.52614C14.4825 2.025 14.1784 1.575 13.8014 1.19795C13.4243 0.820909 12.9743 0.5175 12.4732 0.309545C11.9911 0.109773 11.462 0 10.9091 0H4.09091ZM4.09091 1.36364H10.9091C11.28 1.36364 11.6318 1.43727 11.9516 1.57023C12.285 1.70795 12.585 1.91114 12.8373 2.16273C13.0895 2.41432 13.292 2.715 13.4298 3.04841C13.5627 3.36818 13.6364 3.72 13.6364 4.09091V10.9091C13.6364 11.28 13.5627 11.6318 13.4298 11.9516C13.292 12.285 13.0889 12.585 12.8373 12.8373C12.5857 13.0895 12.285 13.292 11.9516 13.4298C11.6318 13.5627 11.28 13.6364 10.9091 13.6364H4.09091C3.72 13.6364 3.36818 13.5627 3.04841 13.4298C2.715 13.292 2.415 13.0889 2.16273 12.8373C1.91045 12.5857 1.70795 12.285 1.57023 11.9516C1.43727 11.6318 1.36364 11.28 1.36364 10.9091V4.09091C1.36364 3.72 1.43727 3.36818 1.57023 3.04841C1.70795 2.715 1.91114 2.415 2.16273 2.16273C2.41432 1.91045 2.715 1.70795 3.04841 1.57023C3.36818 1.43727 3.72 1.36364 4.09091 1.36364ZM10.9016 6.97023C10.7993 6.3075 10.5123 5.70409 10.0875 5.22C9.82636 4.92205 9.51341 4.66909 9.15886 4.47545C8.81591 4.28795 8.43545 4.15841 8.03591 4.09909C7.71955 4.04864 7.37455 4.04659 7.02886 4.09773C6.57341 4.16523 6.15068 4.32068 5.77705 4.54432C5.38909 4.77682 5.055 5.08227 4.79114 5.43886C4.52727 5.79545 4.33159 6.20455 4.22182 6.64295C4.11614 7.06568 4.09023 7.515 4.15773 7.97045C4.22523 8.42591 4.38068 8.84864 4.60432 9.22227C4.83682 9.61023 5.14227 9.94432 5.49886 10.2082C5.85545 10.472 6.26386 10.6677 6.70227 10.7782C7.125 10.8839 7.57432 10.9098 8.02977 10.8423C8.48523 10.7748 8.90795 10.6193 9.28159 10.3957C9.66955 10.1632 10.0036 9.85773 10.2675 9.50114C10.5314 9.14455 10.727 8.73614 10.8375 8.29773C10.9432 7.875 10.9691 7.42568 10.9016 6.97023ZM9.55295 7.17068C9.59386 7.44614 9.57818 7.71477 9.51477 7.96705C9.44932 8.22955 9.33205 8.47432 9.1725 8.68909C9.01295 8.90386 8.8125 9.08727 8.58068 9.22636C8.35773 9.36 8.10477 9.45341 7.83 9.49432C7.55523 9.53523 7.28591 9.51955 7.03364 9.45614C6.77114 9.39068 6.52636 9.27341 6.31159 9.11386C6.09682 8.95432 5.91341 8.75386 5.77432 8.52205C5.64068 8.29909 5.54727 8.04614 5.50636 7.77136C5.46545 7.49659 5.48114 7.22727 5.54455 6.975C5.61 6.7125 5.72727 6.46773 5.88682 6.25295C6.04636 6.03818 6.24682 5.85477 6.47864 5.71568C6.70159 5.58205 6.95455 5.48864 7.22932 5.44773C7.44273 5.41636 7.64864 5.41909 7.8225 5.44636C8.07477 5.48386 8.3025 5.56227 8.50636 5.67341C8.71773 5.78864 8.90523 5.94 9.06205 6.11932C9.31773 6.41114 9.49159 6.77591 9.55295 7.17136V7.17068ZM11.9318 3.75C11.9318 3.37364 11.6264 3.06818 11.25 3.06818C10.8736 3.06818 10.5682 3.37364 10.5682 3.75C10.5682 4.12636 10.8736 4.43182 11.25 4.43182C11.6264 4.43182 11.9318 4.12636 11.9318 3.75Z" fill="#637982"/>
</svg>
