<svg width="22" height="22" viewBox="0 0 22 22" fill="none" xmlns="http://www.w3.org/2000/svg">
<path d="M6 0C5.189 0 4.413 0.161 3.705 0.455C2.97 0.759 2.31 1.205 1.757 1.757C1.204 2.309 0.759 2.97 0.455 3.705C0.161 4.413 0 5.189 0 6V16C0 16.811 0.161 17.587 0.455 18.295C0.759 19.03 1.205 19.69 1.758 20.243C2.311 20.796 2.971 21.241 3.706 21.546C4.413 21.839 5.189 22 6 22H16C16.811 22 17.587 21.839 18.295 21.545C19.03 21.241 19.69 20.795 20.243 20.242C20.796 19.689 21.241 19.029 21.546 18.294C21.839 17.587 22 16.811 22 16V6C22 5.189 21.839 4.413 21.545 3.705C21.241 2.97 20.795 2.31 20.242 1.757C19.689 1.204 19.029 0.759 18.294 0.454C17.587 0.161 16.811 0 16 0H6ZM6 2H16C16.544 2 17.06 2.108 17.529 2.303C18.018 2.505 18.458 2.803 18.828 3.172C19.198 3.541 19.495 3.982 19.697 4.471C19.892 4.94 20 5.456 20 6V16C20 16.544 19.892 17.06 19.697 17.529C19.495 18.018 19.197 18.458 18.828 18.828C18.459 19.198 18.018 19.495 17.529 19.697C17.06 19.892 16.544 20 16 20H6C5.456 20 4.94 19.892 4.471 19.697C3.982 19.495 3.542 19.197 3.172 18.828C2.802 18.459 2.505 18.018 2.303 17.529C2.108 17.06 2 16.544 2 16V6C2 5.456 2.108 4.94 2.303 4.471C2.505 3.982 2.803 3.542 3.172 3.172C3.541 2.802 3.982 2.505 4.471 2.303C4.94 2.108 5.456 2 6 2ZM15.989 10.223C15.839 9.251 15.418 8.366 14.795 7.656C14.412 7.219 13.953 6.848 13.433 6.564C12.93 6.289 12.372 6.099 11.786 6.012C11.322 5.938 10.816 5.935 10.309 6.01C9.641 6.109 9.021 6.337 8.473 6.665C7.904 7.006 7.414 7.454 7.027 7.977C6.64 8.5 6.353 9.1 6.192 9.743C6.037 10.363 5.999 11.022 6.098 11.69C6.197 12.358 6.425 12.978 6.753 13.526C7.094 14.095 7.542 14.585 8.065 14.972C8.588 15.359 9.187 15.646 9.83 15.808C10.45 15.963 11.109 16.001 11.777 15.902C12.445 15.803 13.065 15.575 13.613 15.247C14.182 14.906 14.672 14.458 15.059 13.935C15.446 13.412 15.733 12.813 15.895 12.17C16.05 11.55 16.088 10.891 15.989 10.223ZM14.011 10.517C14.071 10.921 14.048 11.315 13.955 11.685C13.859 12.07 13.687 12.429 13.453 12.744C13.219 13.059 12.925 13.328 12.585 13.532C12.258 13.728 11.887 13.865 11.484 13.925C11.081 13.985 10.686 13.962 10.316 13.869C9.931 13.773 9.572 13.601 9.257 13.367C8.942 13.133 8.673 12.839 8.469 12.499C8.273 12.172 8.136 11.801 8.076 11.398C8.016 10.995 8.039 10.6 8.132 10.23C8.228 9.845 8.4 9.486 8.634 9.171C8.868 8.856 9.162 8.587 9.502 8.383C9.829 8.187 10.2 8.05 10.603 7.99C10.916 7.944 11.218 7.948 11.473 7.988C11.843 8.043 12.177 8.158 12.476 8.321C12.786 8.49 13.061 8.712 13.291 8.975C13.666 9.403 13.921 9.938 14.011 10.518V10.517ZM17.5 5.5C17.5 4.948 17.052 4.5 16.5 4.5C15.948 4.5 15.5 4.948 15.5 5.5C15.5 6.052 15.948 6.5 16.5 6.5C17.052 6.5 17.5 6.052 17.5 5.5Z" fill="#F9F3ED"/>
</svg>
