<svg width="16" height="15" viewBox="0 0 16 15" fill="none" xmlns="http://www.w3.org/2000/svg">
<path d="M10.7143 4.28571C10.0386 4.28571 9.39214 4.42 8.80214 4.66429C8.19 4.91786 7.63929 5.28929 7.17857 5.75C6.71786 6.21071 6.34643 6.76071 6.09286 7.37357C5.84857 7.96357 5.71429 8.61 5.71429 9.28571V14.2857C5.71429 14.68 6.03429 15 6.42857 15H9.28571C9.68 15 10 14.68 10 14.2857V9.28571C10 9.18786 10.0193 9.09571 10.0536 9.01286C10.0893 8.92571 10.1429 8.84714 10.2093 8.78071C10.2757 8.71429 10.3543 8.66143 10.4414 8.625C10.5243 8.59071 10.6164 8.57143 10.7143 8.57143C10.8121 8.57143 10.9043 8.59071 10.9871 8.625C11.0743 8.66071 11.1529 8.71429 11.2193 8.78071C11.2857 8.84714 11.3386 8.92571 11.375 9.01286C11.4093 9.09571 11.4286 9.18786 11.4286 9.28571V14.2857C11.4286 14.68 11.7486 15 12.1429 15H15C15.3943 15 15.7143 14.68 15.7143 14.2857V9.28571C15.7143 8.61 15.58 7.96357 15.3357 7.37357C15.0821 6.76143 14.7107 6.21071 14.25 5.75C13.7893 5.28929 13.2393 4.91786 12.6264 4.66429C12.0364 4.42 11.39 4.28571 10.7143 4.28571ZM10.7143 5.71429C11.1993 5.71429 11.66 5.81071 12.08 5.98429C12.5164 6.165 12.91 6.43 13.24 6.76C13.57 7.09 13.835 7.48357 14.0157 7.92C14.1893 8.34 14.2857 8.80071 14.2857 9.28571V13.5714H12.8571V9.28571C12.8571 8.99643 12.7993 8.71929 12.6943 8.46571C12.5857 8.20286 12.4264 7.96714 12.2293 7.77C12.0321 7.57286 11.7964 7.41357 11.5336 7.305C11.2807 7.20071 11.0036 7.14286 10.7143 7.14286C10.425 7.14286 10.1479 7.20071 9.89429 7.30571C9.63143 7.41429 9.39571 7.57357 9.19857 7.77071C9.00143 7.96786 8.84214 8.20357 8.73357 8.46643C8.62929 8.71929 8.57143 8.99643 8.57143 9.28571V13.5714H7.14286V9.28571C7.14286 8.80071 7.23929 8.34 7.41286 7.92C7.59357 7.48357 7.85857 7.09 8.18857 6.76C8.51857 6.43 8.91214 6.165 9.34857 5.98429C9.76857 5.81071 10.2293 5.71429 10.7143 5.71429ZM0.714286 5C0.32 5 0 5.32 0 5.71429V14.2857C0 14.68 0.32 15 0.714286 15H3.57143C3.96571 15 4.28571 14.68 4.28571 14.2857V5.71429C4.28571 5.32 3.96571 5 3.57143 5H0.714286ZM1.42857 6.42857H2.85714V13.5714H1.42857V6.42857ZM4.28571 2.14286C4.28571 1.85357 4.22786 1.57643 4.12286 1.32286C4.01429 1.06071 3.855 0.825 3.65786 0.627857C3.46071 0.430714 3.225 0.271429 2.96286 0.162857C2.70929 0.0578572 2.43214 0 2.14286 0C1.85357 0 1.57643 0.0578572 1.32286 0.162857C1.06071 0.271429 0.825 0.430714 0.627857 0.627857C0.430714 0.825 0.271429 1.06071 0.162857 1.32286C0.0578572 1.57643 0 1.85357 0 2.14286C0 2.43214 0.0578572 2.70929 0.162857 2.96286C0.271429 3.225 0.430714 3.46071 0.627857 3.65786C0.825 3.855 1.06071 4.01429 1.32286 4.12286C1.57643 4.22786 1.85357 4.28571 2.14286 4.28571C2.43214 4.28571 2.70929 4.22786 2.96286 4.12286C3.225 4.01429 3.46071 3.855 3.65786 3.65786C3.855 3.46071 4.01429 3.225 4.12286 2.96286C4.22786 2.70929 4.28571 2.43214 4.28571 2.14286ZM2.85714 2.14286C2.85714 2.24071 2.83786 2.33286 2.80357 2.41571C2.76714 2.50286 2.71429 2.58143 2.64786 2.64786C2.58143 2.71429 2.50286 2.76714 2.41571 2.80357C2.33286 2.83786 2.24071 2.85714 2.14286 2.85714C2.045 2.85714 1.95286 2.83786 1.87 2.80357C1.78286 2.76714 1.70429 2.71429 1.63786 2.64786C1.57143 2.58143 1.51857 2.50286 1.48214 2.41571C1.44786 2.33286 1.42857 2.24071 1.42857 2.14286C1.42857 2.045 1.44786 1.95286 1.48214 1.87C1.51857 1.78286 1.57143 1.70429 1.63786 1.63786C1.70429 1.57143 1.78286 1.51857 1.87 1.48214C1.95286 1.44786 2.045 1.42857 2.14286 1.42857C2.24071 1.42857 2.33286 1.44786 2.41571 1.48214C2.50286 1.51857 2.58143 1.57143 2.64786 1.63786C2.71429 1.70429 2.76714 1.78286 2.80357 1.87C2.83786 1.95286 2.85714 2.045 2.85714 2.14286Z" fill="#637982"/>
</svg>
