<svg width="13" height="15" viewBox="0 0 13 15" fill="none" xmlns="http://www.w3.org/2000/svg">
<path d="M12.5004 6.25019C12.5004 5.40454 12.3322 4.59701 12.0266 3.86012C11.7097 3.09509 11.2453 2.40695 10.6697 1.83068C10.0941 1.25504 9.40591 0.790649 8.64026 0.473764C7.90336 0.16813 7.09584 0 6.25019 0C5.40454 0 4.59701 0.16813 3.86012 0.473764C3.09447 0.790649 2.40632 1.25504 1.83068 1.83068C1.25504 2.40632 0.790649 3.09447 0.473764 3.86012C0.16813 4.59701 0 5.40454 0 6.25019C0 6.60582 0.033126 6.95521 0.0937529 7.29772C0.265008 8.26525 0.655645 9.17527 1.14503 9.9978C1.68193 10.8997 2.34695 11.7129 3.00072 12.401C3.54886 12.9779 4.0945 13.4729 4.56076 13.8654C4.89077 14.1429 5.18203 14.3704 5.40829 14.5398C5.54704 14.6442 5.66204 14.7267 5.7458 14.7861C5.84392 14.8554 5.90393 14.8954 5.90393 14.8954C6.11081 15.0311 6.38207 15.0386 6.59707 14.8954C6.59707 14.8954 6.6577 14.8548 6.7552 14.7861C6.83895 14.7267 6.95333 14.6442 7.09271 14.5398C7.31897 14.3704 7.61023 14.1429 7.94024 13.8654C8.4065 13.4729 8.95214 12.9779 9.50029 12.401C10.1541 11.7129 10.8191 10.8997 11.356 9.9978C11.8454 9.17527 12.236 8.26525 12.4072 7.29772C12.4672 6.95521 12.5004 6.60582 12.5004 6.25019ZM11.2503 6.25019C11.2503 6.5277 11.2247 6.80458 11.176 7.08021C11.0378 7.86149 10.7153 8.62901 10.2809 9.35903C9.80467 10.1591 9.2034 10.8985 8.59338 11.5403C8.08399 12.0766 7.57335 12.5398 7.13459 12.9091C6.82458 13.1698 6.55145 13.3829 6.34207 13.5404C6.30956 13.5648 6.27894 13.5873 6.25019 13.6092C6.22081 13.5879 6.19019 13.5648 6.15831 13.5404C5.9483 13.3829 5.67517 13.1698 5.36579 12.9091C4.92702 12.5398 4.41701 12.0766 3.90699 11.5403C3.29697 10.8985 2.69571 10.1591 2.21944 9.35903C1.78505 8.62901 1.46254 7.86149 1.32441 7.08021C1.27566 6.80458 1.25004 6.5277 1.25004 6.25019C1.25004 5.57204 1.38504 4.9264 1.62817 4.33825C1.88193 3.72699 2.25319 3.17572 2.71446 2.71446C3.17572 2.25319 3.72699 1.88131 4.33825 1.62817C4.9264 1.38504 5.57204 1.25004 6.25019 1.25004C6.92833 1.25004 7.57398 1.38504 8.16212 1.62817C8.77339 1.88131 9.32403 2.25257 9.78592 2.71446C10.2478 3.17635 10.6191 3.72699 10.8722 4.33825C11.1153 4.9264 11.2503 5.57204 11.2503 6.25019ZM8.75026 6.25019C8.75026 5.91268 8.68276 5.58954 8.56088 5.29391C8.434 4.98765 8.24837 4.71264 8.01837 4.48263C7.78836 4.25263 7.51272 4.06637 7.20647 3.93949C6.91083 3.81761 6.5877 3.75011 6.25019 3.75011C5.91268 3.75011 5.58954 3.81761 5.29391 3.93949C4.98765 4.06637 4.71264 4.252 4.48263 4.48201C4.25263 4.71202 4.06637 4.98765 3.93949 5.29391C3.81761 5.58954 3.75011 5.91268 3.75011 6.25019C3.75011 6.5877 3.81761 6.91083 3.93949 7.20647C4.06637 7.51272 4.252 7.78773 4.48201 8.01774C4.71202 8.24775 4.98702 8.43338 5.29328 8.56026C5.58954 8.68276 5.91268 8.75026 6.25019 8.75026C6.5877 8.75026 6.91083 8.68276 7.20647 8.56088C7.51272 8.434 7.78773 8.24837 8.01774 8.01837C8.24775 7.78836 8.43338 7.51335 8.56026 7.20709C8.68276 6.91083 8.75026 6.5877 8.75026 6.25019ZM7.50022 6.25019C7.50022 6.42082 7.46647 6.58145 7.40585 6.72833C7.34272 6.88083 7.24959 7.01834 7.13396 7.13459C7.01833 7.25084 6.88021 7.34335 6.7277 7.40647C6.58145 7.46647 6.42082 7.50022 6.25019 7.50022C6.07956 7.50022 5.91893 7.46647 5.77205 7.40585C5.61954 7.34272 5.48204 7.24959 5.36579 7.13396C5.24953 7.01833 5.15703 6.88021 5.0939 6.7277C5.0339 6.58145 5.00015 6.42082 5.00015 6.25019C5.00015 6.07956 5.0339 5.91893 5.09453 5.77205C5.15765 5.61954 5.25078 5.48204 5.36641 5.36579C5.48204 5.24953 5.62017 5.15703 5.77267 5.0939C5.91893 5.0339 6.07956 5.00015 6.25019 5.00015C6.42082 5.00015 6.58145 5.0339 6.72833 5.09453C6.88083 5.15765 7.01834 5.25078 7.13459 5.36641C7.25084 5.48204 7.34335 5.62017 7.40647 5.77267C7.46647 5.91893 7.50022 6.07956 7.50022 6.25019Z" fill="#637982"/>
</svg>
