<svg width="101" height="51" viewBox="0 0 101 51" fill="none" xmlns="http://www.w3.org/2000/svg">
<path d="M48.0482 10.289C48.0482 11.7873 47.6432 12.9617 46.8333 13.812C46.037 14.6489 44.9301 15.0674 43.5128 15.0674C42.2305 15.0674 41.2384 14.7569 40.5365 14.136C39.8346 13.5016 39.4836 12.631 39.4836 11.5241C39.4836 11.1327 39.5174 10.775 39.5849 10.451L41.0832 10.1473C41.0292 10.6062 41.0022 10.9302 41.0022 11.1192C41.0022 11.9426 41.1979 12.5567 41.5893 12.9617C41.9808 13.3531 42.6017 13.5488 43.4521 13.5488C44.5589 13.5488 45.3283 13.2519 45.7602 12.658C46.2057 12.064 46.4284 11.1394 46.4284 9.8841V1.50179H48.0482V10.289Z" fill="#F7F7F7"/>
<path d="M57.775 1.29932C59.0303 1.29932 60.1237 1.58278 61.055 2.1497C61.9864 2.70312 62.7018 3.4995 63.2012 4.53886C63.7142 5.56471 63.9706 6.77954 63.9706 8.18334C63.9706 9.58714 63.7142 10.8087 63.2012 11.8481C62.7018 12.8739 61.9864 13.6703 61.055 14.2372C60.1237 14.7907 59.0303 15.0674 57.775 15.0674C56.5197 15.0674 55.4263 14.7907 54.495 14.2372C53.5636 13.6703 52.8415 12.8739 52.3285 11.8481C51.8291 10.8087 51.5794 9.58714 51.5794 8.18334C51.5794 6.77954 51.8291 5.56471 52.3285 4.53886C52.8415 3.4995 53.5636 2.70312 54.495 2.1497C55.4263 1.58278 56.5197 1.29932 57.775 1.29932ZM57.775 2.81785C56.3847 2.81785 55.2846 3.29703 54.4747 4.2554C53.6783 5.20026 53.2802 6.50958 53.2802 8.18334C53.2802 9.8571 53.6783 11.1732 54.4747 12.1315C55.2846 13.0764 56.3847 13.5488 57.775 13.5488C59.1653 13.5488 60.2587 13.0764 61.055 12.1315C61.8649 11.1732 62.2699 9.8571 62.2699 8.18334C62.2699 6.50958 61.8649 5.20026 61.055 4.2554C60.2587 3.29703 59.1653 2.81785 57.775 2.81785Z" fill="#F7F7F7"/>
<path d="M67.6363 1.50179H72.3944C73.9332 1.50179 75.0738 1.82574 75.8162 2.47365C76.572 3.10806 76.95 4.01243 76.95 5.18676C76.95 5.88866 76.7475 6.50958 76.3426 7.0495C75.9511 7.58942 75.4045 7.92688 74.7026 8.06186V8.0821C75.4855 8.23058 76.1131 8.58828 76.5855 9.1552C77.058 9.72212 77.2942 10.3768 77.2942 11.1192C77.2942 12.2665 76.8623 13.1776 75.9984 13.8525C75.1345 14.5274 73.9264 14.8649 72.3741 14.8649H67.6363V1.50179ZM72.4146 7.37345C73.373 7.37345 74.0816 7.19798 74.5406 6.84703C75.013 6.48258 75.2492 5.92916 75.2492 5.18676C75.2492 3.74247 74.3044 3.02032 72.4146 3.02032H69.2561V7.37345H72.4146ZM72.7588 13.3464C73.7037 13.3464 74.4124 13.1574 74.8848 12.7794C75.3572 12.388 75.5934 11.8346 75.5934 11.1192C75.5934 10.4038 75.3572 9.8571 74.8848 9.47916C74.4124 9.08771 73.7037 8.89199 72.7588 8.89199H69.2561V13.3464H72.7588Z" fill="#F7F7F7"/>
<path d="M85.2578 1.29932C87.647 1.29932 89.368 2.24418 90.4208 4.13391L89.0238 5.26775C88.6188 4.37688 88.1329 3.74922 87.566 3.38477C87.0126 3.00682 86.2499 2.81785 85.278 2.81785C84.2522 2.81785 83.4423 3.03382 82.8484 3.46576C82.268 3.8842 81.9778 4.42412 81.9778 5.08553C81.9778 5.51747 82.0925 5.87517 82.322 6.15863C82.5514 6.44209 82.9294 6.6918 83.4558 6.90777C83.9957 7.11024 84.7381 7.29247 85.683 7.45444C87.4512 7.7514 88.6998 8.19684 89.4287 8.79075C90.1711 9.38467 90.5423 10.2081 90.5423 11.2609C90.5423 12.0168 90.3263 12.685 89.8944 13.2654C89.476 13.8323 88.8753 14.2777 88.0924 14.6017C87.3095 14.9121 86.4051 15.0674 85.3793 15.0674C84.0295 15.0674 82.8754 14.8041 81.917 14.2777C80.9722 13.7513 80.25 13.0494 79.7506 12.172L81.1476 11.0382C81.5121 11.8346 82.0453 12.4555 82.7472 12.9009C83.4626 13.3329 84.3534 13.5488 85.4198 13.5488C86.4726 13.5488 87.3095 13.3599 87.9304 12.9819C88.5513 12.5905 88.8618 12.0438 88.8618 11.3419C88.8618 10.748 88.5918 10.2755 88.0519 9.92459C87.512 9.57364 86.5536 9.27668 85.1768 9.03372C83.3951 8.72326 82.133 8.27783 81.3906 7.69741C80.6482 7.11699 80.277 6.30711 80.277 5.26775C80.277 4.55235 80.4795 3.89095 80.8844 3.28353C81.2894 2.67612 81.8698 2.19694 82.6257 1.84599C83.3816 1.48154 84.2589 1.29932 85.2578 1.29932Z" fill="#F7F7F7"/>
<path d="M61.8734 21.1591V24.8124C60.5823 24.1375 59.4232 23.6533 58.3962 23.3599C57.3692 23.0664 56.0194 22.9197 54.3468 22.9197C51.1483 22.9197 48.4781 24.0054 46.336 26.1769C44.2232 28.3483 43.1669 31.18 43.1669 34.6719C43.1669 38.3105 44.2232 41.2155 46.336 43.3869C48.4487 45.5584 51.251 46.6441 54.7429 46.6441C57.5599 46.6441 59.9661 45.8958 61.9615 44.3993V48.1406C60.1422 49.373 57.6479 49.9893 54.4788 49.9893C50.0186 49.9893 46.3947 48.6248 43.607 45.8958C40.8194 43.1375 39.4255 39.3962 39.4255 34.6719C39.4255 30.2116 40.834 26.5877 43.651 23.8C46.4974 20.983 50.0626 19.5745 54.3468 19.5745C57.4279 19.5745 59.9368 20.1027 61.8734 21.1591Z" fill="#F7F7F7"/>
<path d="M90.5083 32.9993V47.1723H90.4643L90.5083 47.3043C88.1314 49.0943 85.065 49.9893 81.309 49.9893C76.7314 49.9893 73.0488 48.6394 70.2611 45.9398C67.4735 43.2109 66.0797 39.4842 66.0797 34.7599C66.0797 30.2703 67.4588 26.6024 70.2171 23.756C73.0048 20.8803 76.5113 19.4425 80.7368 19.4425C84.2287 19.4425 87.1191 20.1174 89.4079 21.4672V25.2966C87.0017 23.712 84.214 22.9197 81.0449 22.9197C77.7291 22.9197 75.0295 24.0054 72.9461 26.1769C70.8627 28.319 69.821 31.18 69.821 34.7599C69.821 38.4278 70.848 41.3182 72.9021 43.4309C74.9561 45.5143 77.7878 46.556 81.3971 46.556C83.3924 46.556 85.2411 46.1599 86.943 45.3676V36.1244H80.4287V32.9993H90.5083Z" fill="#F7F7F7"/>
<path d="M97.2832 49.6371V19.9707H100.848V49.6371H97.2832Z" fill="#F7F7F7"/>
<path fill-rule="evenodd" clip-rule="evenodd" d="M3.49534 1.00003C3.56066 1.00106 3.62215 1.03107 3.66316 1.08192L5.79294 3.72285C5.86924 3.81747 5.8544 3.95602 5.75978 4.03232C5.66517 4.10862 5.52662 4.09377 5.45032 3.99916L3.48639 1.56389L1.38692 4.00453C1.30766 4.09667 1.16871 4.10711 1.07656 4.02785C0.984417 3.94859 0.973976 3.80963 1.05324 3.71749L3.32501 1.07656C3.36761 1.02703 3.43002 0.998991 3.49534 1.00003ZM3.42086 4.08108C3.5424 4.08108 3.64093 4.17962 3.64093 4.30116V32.9677L26.638 19.5166C26.7429 19.4552 26.8777 19.4906 26.939 19.5955C27.0004 19.7004 26.9651 19.8352 26.8602 19.8966L3.86126 33.3488L29.0587 47.6852C29.1643 47.7453 29.2012 47.8797 29.1411 47.9853C29.081 48.091 28.9466 48.1279 28.841 48.0678L3.31202 33.5427C3.24325 33.5035 3.20078 33.4305 3.20078 33.3514V4.30116C3.20078 4.17962 3.29931 4.08108 3.42086 4.08108ZM25.2677 17.6937C25.2869 17.5736 25.3997 17.4918 25.5197 17.5109L29.0603 18.0745C29.1271 18.0851 29.1852 18.1258 29.218 18.1848C29.2509 18.2438 29.2548 18.3147 29.2287 18.377L27.8759 21.6028C27.8289 21.7149 27.6999 21.7676 27.5878 21.7206C27.4757 21.6736 27.423 21.5447 27.47 21.4326L28.7144 18.4651L25.4505 17.9456C25.3305 17.9265 25.2486 17.8137 25.2677 17.6937ZM29.9809 45.9645C30.0944 45.921 30.2217 45.9778 30.2651 46.0913L31.5474 49.4394C31.5716 49.5025 31.5654 49.5732 31.5307 49.6311C31.496 49.6891 31.4367 49.7279 31.3696 49.7364L27.8996 50.1778C27.779 50.1931 27.6688 50.1078 27.6535 49.9872C27.6381 49.8666 27.7235 49.7565 27.844 49.7411L31.0361 49.3352L29.8541 46.2487C29.8106 46.1352 29.8674 46.008 29.9809 45.9645Z" fill="#F7F7F7" stroke="#F7F7F7" stroke-width="0.2" stroke-linecap="round" stroke-linejoin="round"/>
</svg>
