<svg width="30" height="50" viewBox="0 0 30 50" fill="none" xmlns="http://www.w3.org/2000/svg">
<path d="M12.5 22.9167H9.375C8.66667 22.9167 7.99375 22.775 7.38333 22.5229C6.74792 22.2604 6.17292 21.8729 5.69167 21.3917C5.21042 20.9104 4.82292 20.3354 4.56042 19.7C4.30833 19.0896 4.16667 18.4167 4.16667 17.7083C4.16667 17 4.30833 16.3271 4.56042 15.7167C4.82292 15.0813 5.21042 14.5062 5.69167 14.025C6.17292 13.5437 6.74792 13.1562 7.38333 12.8938C7.99375 12.6417 8.66667 12.5 9.375 12.5H12.5V22.9167ZM16.6667 27.0833H19.7917C20.5 27.0833 21.1729 27.225 21.7833 27.4771C22.4188 27.7396 22.9937 28.1271 23.475 28.6083C23.9562 29.0896 24.3438 29.6646 24.6063 30.3C24.8583 30.9104 25 31.5833 25 32.2917C25 33 24.8583 33.6729 24.6063 34.2833C24.3438 34.9187 23.9562 35.4937 23.475 35.975C22.9937 36.4562 22.4188 36.8438 21.7833 37.1063C21.1729 37.3583 20.5 37.5 19.7917 37.5H16.6667V27.0833ZM25 8.33333H16.6667V2.08333C16.6667 0.933333 15.7333 0 14.5833 0C13.4333 0 12.5 0.933333 12.5 2.08333V8.33333H9.375C8.10833 8.33333 6.89583 8.58542 5.78958 9.04375C4.63958 9.52083 3.60833 10.2167 2.74583 11.0792C1.88333 11.9417 1.1875 12.9729 0.710417 14.1229C0.252083 15.2292 0 16.4417 0 17.7083C0 18.975 0.252083 20.1875 0.710417 21.2937C1.18542 22.4417 1.88333 23.475 2.74583 24.3375C3.60833 25.2 4.63958 25.8958 5.78958 26.3729C6.89583 26.8312 8.10833 27.0833 9.375 27.0833H12.5V37.5H2.08333C0.933333 37.5 0 38.4333 0 39.5833C0 40.7333 0.933333 41.6667 2.08333 41.6667H12.5V47.9167C12.5 49.0667 13.4333 50 14.5833 50C15.7333 50 16.6667 49.0667 16.6667 47.9167V41.6667H19.7917C21.0583 41.6667 22.2708 41.4146 23.3771 40.9562C24.525 40.4813 25.5583 39.7833 26.4208 38.9208C27.2833 38.0583 27.9792 37.0271 28.4562 35.8771C28.9146 34.7708 29.1667 33.5583 29.1667 32.2917C29.1667 31.025 28.9146 29.8125 28.4562 28.7062C27.9812 27.5583 27.2833 26.525 26.4208 25.6625C25.5583 24.8 24.5271 24.1042 23.3771 23.6271C22.2708 23.1687 21.0583 22.9167 19.7917 22.9167H16.6667V12.5H25C26.15 12.5 27.0833 11.5667 27.0833 10.4167C27.0833 9.26667 26.15 8.33333 25 8.33333Z" fill="#637982"/>
</svg>
