<svg width="24" height="24" viewBox="0 0 24 24" fill="none" xmlns="http://www.w3.org/2000/svg">
<path fill-rule="evenodd" clip-rule="evenodd" d="M10.2192 1.59386C10.382 1.23273 10.7454 1 11.1464 1C12.2228 1 13.2551 1.42142 14.0162 2.17157C14.7773 2.92171 15.2049 3.93912 15.2049 4.99998V7.99996H19.9279C20.367 7.99595 20.8018 8.08563 21.2025 8.26285C21.605 8.44092 21.9635 8.70312 22.253 9.03129C22.5426 9.35946 22.7563 9.74574 22.8793 10.1634C23.0023 10.581 23.0317 11.02 22.9655 11.45L21.5654 20.4498C21.5653 20.4501 21.5654 20.4496 21.5654 20.4498C21.4551 21.1649 21.0864 21.8174 20.5272 22.2858C19.9695 22.7531 19.2595 23.0066 18.5277 22.9999H4.04391C3.23661 22.9999 2.46238 22.6838 1.89154 22.1212C1.3207 21.5586 1 20.7955 1 19.9999V12.9999C1 12.2043 1.3207 11.4412 1.89154 10.8786C2.46238 10.316 3.23661 9.99995 4.04391 9.99995H6.42843L10.2192 1.59386ZM8.10245 11.2122L11.7631 3.09459C12.0689 3.19074 12.3501 3.35793 12.5813 3.58577C12.9618 3.96084 13.1756 4.46955 13.1756 4.99998V8.99995C13.1756 9.55223 13.6299 9.99995 14.1903 9.99995H19.9331L19.9446 9.99988C20.0917 9.99824 20.2374 10.0281 20.3715 10.0875C20.5057 10.1468 20.6252 10.2342 20.7217 10.3436C20.8183 10.453 20.8895 10.5818 20.9305 10.721C20.9715 10.8601 20.9813 11.0063 20.9593 11.1495C20.9593 11.1493 20.9593 11.1496 20.9593 11.1495L19.559 20.1499C19.5223 20.3884 19.3994 20.6058 19.213 20.7619C19.0265 20.9181 18.7891 21.0027 18.5444 20.9999L8.10245 20.9999V11.2122ZM6.07318 20.9999V11.9999H4.04391C3.77481 11.9999 3.51673 12.1053 3.32645 12.2928C3.13617 12.4804 3.02927 12.7347 3.02927 12.9999V19.9999C3.02927 20.2651 3.13617 20.5195 3.32645 20.707C3.51673 20.8945 3.77481 20.9999 4.04391 20.9999H6.07318Z" fill="white"/>
</svg>
