<svg width="50" height="50" viewBox="0 0 50 50" fill="none" xmlns="http://www.w3.org/2000/svg">
<path d="M40.2428 28.8795L40.9087 28.2136L44.5132 31.818L31.818 44.5132L28.2135 40.9087L28.8794 40.2428L40.2428 28.8795ZM0.0549973 2.77101C0.05727 2.78238 0.0618152 2.79601 0.0640879 2.80737L0.0731785 2.84601L8.01847 35.7611C8.2321 36.6429 8.93436 37.2816 9.78207 37.4566L22.8841 40.0769C22.5636 40.8928 22.7318 41.8564 23.3932 42.5155L30.2112 49.3335C31.0998 50.2222 32.5384 50.2222 33.4248 49.3335L49.3335 33.4248C50.2222 32.5362 50.2222 31.0976 49.3335 30.2113L42.5155 23.3932C41.8564 22.7342 40.8928 22.5637 40.0769 22.8842L37.4565 9.78221C37.2792 8.89132 36.602 8.2277 35.7611 8.01861L2.80721 0.0642577C2.74131 0.048349 2.67313 0.034713 2.60722 0.0256223C2.27995 -0.0243765 1.9595 0.00062271 1.65724 0.0847116C1.34815 0.173346 1.06179 0.323342 0.816345 0.527883C0.607259 0.702879 0.427717 0.91651 0.291356 1.16196C0.191358 1.33923 0.114087 1.5324 0.0640879 1.73922C0.0481792 1.80285 0.0368157 1.86649 0.027725 1.92785C-0.0177287 2.21875 -0.00636506 2.50738 0.0549973 2.77101ZM29.5453 22.7274C29.5453 21.8069 29.3612 20.9251 29.0271 20.1183C28.6817 19.282 28.1749 18.532 27.5476 17.9047C26.9204 17.2775 26.1704 16.7707 25.334 16.4252C24.5295 16.0934 23.6477 15.9093 22.7273 15.9093C21.8068 15.9093 20.925 16.0934 20.1182 16.4275C20.0069 16.473 19.8978 16.523 19.7887 16.5752L9.59117 6.37774L33.2839 12.0958L36.1702 26.525L26.5272 36.1679L12.0979 33.2816L6.37759 9.5913L16.5751 19.7888C16.5228 19.8979 16.4728 20.007 16.4274 20.1183C16.0933 20.9251 15.9092 21.8069 15.9092 22.7274C15.9092 23.6478 16.0933 24.5296 16.4274 25.3364C16.7728 26.1727 17.2796 26.9227 17.9069 27.55C18.5342 28.1772 19.2841 28.684 20.1205 29.0295C20.925 29.3613 21.8068 29.5454 22.7273 29.5454C23.6477 29.5454 24.5295 29.3613 25.3363 29.0272C26.1726 28.6818 26.9226 28.175 27.5499 27.5477C28.1771 26.9204 28.684 26.1705 29.0294 25.3341C29.3612 24.5296 29.5453 23.6478 29.5453 22.7274ZM24.9999 22.7274C24.9999 23.0387 24.9386 23.3319 24.8295 23.5955C24.7159 23.8728 24.5454 24.1228 24.334 24.3341C24.1227 24.5455 23.8727 24.7137 23.5954 24.8296C23.3318 24.9387 23.0386 25 22.7273 25C22.4159 25 22.1227 24.9387 21.8591 24.8296C21.5818 24.7159 21.3318 24.5455 21.1205 24.3341C20.9091 24.1228 20.7409 23.8728 20.625 23.5955C20.5159 23.3319 20.4546 23.0387 20.4546 22.7274C20.4546 22.416 20.5159 22.1228 20.625 21.8592C20.7341 21.5956 20.8932 21.3547 21.0909 21.1501C21.1 21.141 21.1091 21.1319 21.1182 21.1206C21.1273 21.1092 21.1364 21.1024 21.1477 21.0933C21.3523 20.8956 21.5932 20.7365 21.8568 20.6274C22.1227 20.516 22.4159 20.4547 22.7273 20.4547C23.0386 20.4547 23.3318 20.516 23.5954 20.6251C23.8727 20.7388 24.1227 20.9092 24.334 21.1206C24.5454 21.3319 24.7136 21.5819 24.8295 21.8592C24.9386 22.1228 24.9999 22.416 24.9999 22.7274Z" fill="#637982"/>
</svg>
