<svg width="15" height="15" viewBox="0 0 15 15" fill="none" xmlns="http://www.w3.org/2000/svg">
<path d="M14.9722 10.8897C14.9777 10.6572 14.938 10.4164 14.8614 10.1913C14.7821 9.96082 14.6637 9.74741 14.5119 9.56067C14.3518 9.36367 14.1555 9.19609 13.9298 9.06817C13.7116 8.94505 13.4681 8.86023 13.1951 8.82193C12.6479 8.75489 12.0357 8.60714 11.4263 8.38005C11.1301 8.27129 10.8154 8.23093 10.5069 8.26103C10.2771 8.2836 10.05 8.34448 9.83659 8.44435C9.62933 8.54148 9.43575 8.67486 9.26338 8.84587L8.77088 9.33836C7.56017 8.57431 6.47257 7.51408 5.63602 6.19939L6.13262 5.70279C6.35287 5.47707 6.51772 5.20619 6.61622 4.91206C6.68941 4.69318 6.72635 4.46061 6.72224 4.22462C6.71814 3.99548 6.67504 3.76496 6.58954 3.5365C6.39186 3.02143 6.23522 2.41197 6.14903 1.76147C6.11415 1.52001 6.03754 1.29291 5.92741 1.08634C5.81386 0.875659 5.66543 0.686185 5.48964 0.527493C5.30221 0.358539 5.08333 0.223787 4.84255 0.132813C4.60999 0.044574 4.35758 -0.00262346 4.10313 0.000112625H2.0538C1.99361 0.000112625 1.92931 0.00284868 1.86706 0.00832085C1.5914 0.0329456 1.33216 0.112292 1.09959 0.234048C0.858132 0.360591 0.647454 0.532965 0.476449 0.737487C0.305444 0.942009 0.174112 1.18142 0.0927134 1.44134C0.0147351 1.69238 -0.0167299 1.9612 0.00857886 2.24165C0.213785 4.3457 0.942267 6.51199 2.20839 8.4676C3.23579 10.1181 4.7037 11.6298 6.51635 12.781C8.27292 13.9418 10.4043 14.7387 12.7314 14.9911C12.7943 14.9973 12.862 15 12.9284 15C13.2054 14.9986 13.4701 14.9425 13.7129 14.8413C13.964 14.736 14.189 14.5827 14.3771 14.3933C14.5652 14.2038 14.7164 13.9774 14.8197 13.7257C14.9195 13.4828 14.9736 13.2168 14.9722 12.9432V10.8897ZM13.6042 10.8897V12.9418C13.6049 13.0382 13.5864 13.1265 13.5536 13.2065C13.5194 13.2899 13.4687 13.3659 13.4058 13.4295C13.3429 13.4931 13.2669 13.5444 13.1842 13.5793C13.1048 13.6128 13.0166 13.6313 12.9229 13.632C12.8983 13.632 12.8764 13.6306 12.8627 13.6292C10.7696 13.4014 8.84544 12.6798 7.27151 11.6394C5.61071 10.584 4.28986 9.21934 3.37122 7.74459C2.21044 5.95246 1.55515 3.99548 1.37115 2.10963C1.36294 2.02071 1.37388 1.93179 1.39919 1.8497C1.42587 1.76283 1.46965 1.6828 1.5271 1.61372C1.58456 1.54463 1.65502 1.48717 1.73505 1.44545C1.81166 1.40577 1.89716 1.3791 1.99087 1.37089C2.01413 1.36884 2.03465 1.36815 2.04833 1.36815H4.10313C4.19889 1.36747 4.28166 1.3832 4.35827 1.41193C4.43761 1.44203 4.51012 1.48649 4.57305 1.54326C4.63187 1.59662 4.68181 1.66023 4.72011 1.73137C4.75705 1.80045 4.78304 1.87707 4.79467 1.95915C4.89112 2.69242 5.07375 3.4079 5.31179 4.02831C5.33847 4.10013 5.35283 4.17606 5.35352 4.25062C5.35488 4.32791 5.34257 4.40452 5.31795 4.47839C5.28443 4.57758 5.22834 4.67061 5.15241 4.74858L4.28986 5.61113C4.06824 5.83276 4.03062 6.16793 4.17905 6.43264C5.26254 8.33764 6.80501 9.82333 8.54379 10.7953C8.81534 10.9472 9.14709 10.8938 9.36119 10.6818L10.2299 9.81307C10.2853 9.75835 10.3489 9.71457 10.4166 9.68311C10.4864 9.65028 10.5616 9.62976 10.6389 9.62223C10.7429 9.61197 10.851 9.62565 10.9529 9.66327C11.652 9.92388 12.3688 10.0983 13.0282 10.179C13.1042 10.19 13.1849 10.218 13.256 10.2584C13.3299 10.3001 13.3955 10.3562 13.4496 10.4219C13.5009 10.4848 13.5406 10.5566 13.5672 10.6339C13.5932 10.7091 13.6062 10.7899 13.6042 10.8884V10.8897Z" fill="#637982"/>
</svg>
