<svg width="15" height="15" viewBox="0 0 15 15" fill="none" xmlns="http://www.w3.org/2000/svg">
<path d="M7.49227 0C3.35427 0 0 3.35427 0 7.4918C0 10.6661 1.97384 13.3772 4.76095 14.468C4.69532 13.875 4.63673 12.9662 4.78673 12.3188C4.9236 11.7334 5.6656 8.59567 5.6656 8.59567C5.6656 8.59567 5.44108 8.14568 5.44108 7.48242C5.44108 6.44324 6.04528 5.66326 6.79619 5.66326C7.43602 5.66326 7.74491 6.14371 7.74491 6.71838C7.74491 7.36149 7.33665 8.32287 7.12478 9.21346C6.94666 9.95922 7.49977 10.5667 8.23427 10.5667C9.56408 10.5667 10.5892 9.16378 10.5892 7.13743C10.5892 5.34921 9.29971 4.0944 7.45945 4.0944C5.32812 4.0944 4.07894 5.6956 4.07894 7.34368C4.07894 7.98913 4.32502 8.68285 4.63439 9.0569C4.69626 9.1319 4.70423 9.19753 4.68735 9.27252C4.63111 9.50689 4.50408 10.022 4.47877 10.1242C4.44549 10.2648 4.37143 10.2934 4.22799 10.2273C3.2938 9.7961 2.70742 8.4288 2.70742 7.32352C2.70742 4.96344 4.42486 2.79132 7.65726 2.79132C10.2559 2.79132 12.2771 4.64564 12.2771 7.11822C12.2771 9.70235 10.6478 11.7817 8.38146 11.7817C7.62257 11.7817 6.9101 11.3884 6.65792 10.9197L6.18965 12.6994C6.02137 13.3524 5.56201 14.1694 5.25359 14.6658C5.95528 14.8814 6.69495 15 7.47211 15C11.6012 15 14.9625 11.6471 14.9625 7.5082C14.9625 3.3688 11.6012 0.0164057 7.47211 0.0164057L7.49227 0V0Z" fill="#637982"/>
</svg>
