<svg width="18" height="22" viewBox="0 0 18 22" fill="none" xmlns="http://www.w3.org/2000/svg">
<path d="M4 4C4 4.269 4.054 4.528 4.152 4.765C4.254 5.011 4.402 5.23 4.586 5.414C4.77 5.598 4.99 5.746 5.235 5.848C5.472 5.946 5.731 6 6 6H12C12.269 6 12.528 5.946 12.765 5.848C13.011 5.746 13.23 5.598 13.414 5.414C13.598 5.23 13.746 5.01 13.848 4.765C13.946 4.528 14 4.269 14 4H15C15.137 4 15.266 4.027 15.382 4.075C15.504 4.125 15.614 4.2 15.707 4.293C15.8 4.386 15.874 4.496 15.925 4.618C15.973 4.734 16 4.863 16 5V19C16 19.137 15.973 19.266 15.925 19.382C15.875 19.504 15.8 19.614 15.707 19.707C15.614 19.8 15.504 19.874 15.382 19.925C15.266 19.973 15.137 20 15 20H3C2.863 20 2.734 19.973 2.618 19.925C2.496 19.875 2.386 19.8 2.293 19.707C2.2 19.614 2.126 19.504 2.075 19.382C2.027 19.266 2 19.137 2 19V5C2 4.863 2.027 4.734 2.075 4.618C2.125 4.496 2.2 4.386 2.293 4.293C2.386 4.2 2.496 4.126 2.618 4.075C2.734 4.027 2.863 4 3 4H4ZM6 0C5.731 0 5.472 0.054 5.235 0.152C4.989 0.254 4.769 0.402 4.586 0.586C4.403 0.77 4.254 0.989 4.152 1.235C4.054 1.472 4 1.731 4 2H3C2.595 2 2.207 2.081 1.852 2.228C1.485 2.38 1.155 2.603 0.879 2.879C0.603 3.155 0.38 3.485 0.228 3.852C0.0809999 4.207 0 4.595 0 5V19C0 19.405 0.0809999 19.793 0.228 20.148C0.38 20.516 0.603 20.846 0.879 21.122C1.155 21.398 1.485 21.621 1.853 21.773C2.207 21.919 2.595 22 3 22H15C15.405 22 15.793 21.919 16.148 21.772C16.516 21.62 16.846 21.397 17.122 21.121C17.398 20.845 17.621 20.515 17.773 20.147C17.919 19.793 18 19.405 18 19V5C18 4.595 17.919 4.207 17.772 3.852C17.62 3.484 17.397 3.154 17.121 2.878C16.845 2.602 16.515 2.379 16.147 2.227C15.793 2.081 15.405 2 15 2H14C14 1.731 13.946 1.472 13.848 1.235C13.746 0.989 13.598 0.77 13.414 0.586C13.23 0.402 13.01 0.254 12.765 0.152C12.528 0.054 12.269 0 12 0H6ZM6 2H12V4H6V2Z" fill="#637982"/>
</svg>
