<svg width="18" height="18" viewBox="0 0 18 18" fill="none" xmlns="http://www.w3.org/2000/svg">
<path d="M5.36302 12.4702C5.39362 12.4936 5.42332 12.5197 5.45212 12.5485C5.48092 12.5773 5.50612 12.6061 5.53042 12.6376C6.09473 13.1812 6.75893 13.6195 7.49243 13.9237C8.23224 14.2297 9.04494 14.3998 9.89995 14.3998C10.755 14.3998 11.5677 14.2297 12.3093 13.9228C13.0797 13.6042 13.7736 13.1362 14.355 12.5539C14.9364 11.9717 15.4044 11.2787 15.7239 10.5083C16.0299 9.76758 16.2 8.95489 16.2 8.0999C16.2 7.24491 16.0299 6.43222 15.723 5.69063C15.4044 4.92114 14.9364 4.22635 14.355 3.64495C13.7736 3.06356 13.0788 2.59557 12.3093 2.27697C11.5677 1.97008 10.755 1.79998 9.89995 1.79998C9.04494 1.79998 8.23224 1.97008 7.49063 2.27697C6.72023 2.59557 6.02633 3.06356 5.44492 3.64585C4.86352 4.22815 4.39552 4.92114 4.07601 5.69153C3.77001 6.43222 3.59991 7.24491 3.59991 8.0999C3.59991 8.95489 3.77001 9.76758 4.07691 10.5092C4.38112 11.2427 4.81942 11.9069 5.36302 12.4711V12.4702ZM0.263589 16.4635L3.57111 13.156C3.09861 12.5656 2.7071 11.9078 2.4137 11.1977C2.0177 10.2419 1.7999 9.19519 1.7999 8.0999C1.7999 7.00461 2.0177 5.95793 2.4137 5.00214C2.82411 4.01035 3.42621 3.11846 4.17231 2.37237C4.91842 1.62628 5.81032 1.02419 6.80213 0.613792C7.75794 0.217797 8.80464 0 9.89995 0C10.9953 0 12.042 0.217797 12.9978 0.613792C13.9896 1.02419 14.8815 1.62628 15.6276 2.37237C16.3737 3.11846 16.9758 4.01035 17.3862 5.00214C17.7822 5.95793 18 7.00461 18 8.0999C18 9.19519 17.7822 10.2419 17.3862 11.1977C16.9758 12.1894 16.3737 13.0813 15.6276 13.8274C14.8815 14.5735 13.9896 15.1756 12.9978 15.586C12.042 15.982 10.9953 16.1998 9.89995 16.1998C8.80464 16.1998 7.75794 15.982 6.80213 15.586C6.09293 15.2917 5.43412 14.9002 4.84372 14.4286L1.5362 17.7361C1.1843 18.088 0.614592 18.088 0.263589 17.7361C-0.0874128 17.3842 -0.0883128 16.8145 0.263589 16.4635V16.4635Z" fill="white"/>
</svg>
