<svg width="15" height="15" viewBox="0 0 15 15" fill="none" xmlns="http://www.w3.org/2000/svg">
<path d="M7.52297 11.7961C5.00859 11.7961 3.88547 10.5591 3.88547 9.63094C3.88547 9.15281 4.23609 8.82094 4.71844 8.82094C5.79516 8.82094 5.51391 10.3692 7.52297 10.3692C8.54859 10.3692 9.11672 9.81 9.11672 9.23719C9.11672 8.89266 8.94844 8.51203 8.27063 8.34422L6.03562 7.785C4.23562 7.33266 3.90891 6.35625 3.90891 5.44078C3.90891 3.53625 5.69719 2.82141 7.37719 2.82141C8.92172 2.82141 10.748 3.67969 10.748 4.82063C10.748 5.31047 10.3181 5.59547 9.84 5.59547C8.92172 5.59547 9.09141 4.32234 7.2375 4.32234C6.31922 4.32234 5.805 4.73719 5.805 5.33297C5.805 5.92875 6.52547 6.11906 7.15313 6.2625L8.80125 6.62953C10.6083 7.035 11.0662 8.09578 11.0662 9.09469C11.0662 10.642 9.8775 11.797 7.49016 11.797L7.52297 11.7961ZM14.4169 8.74547L14.3986 8.82984L14.3709 8.67984C14.3803 8.70797 14.3986 8.72625 14.408 8.75484C14.483 8.33297 14.5209 7.90313 14.5209 7.47234C14.5209 6.51656 14.333 5.58984 13.9598 4.71C13.6041 3.86766 13.088 3.10875 12.443 2.46234C11.7872 1.81687 11.0386 1.30219 10.1963 0.945937C9.37266 0.551719 8.44547 0.364687 7.49109 0.364687C7.04109 0.364687 6.58875 0.408281 6.15187 0.492187L6.22641 0.529687L6.07687 0.509062L6.15141 0.493594C5.54906 0.171094 4.87313 0 4.18688 0C3.06891 0 2.01797 0.436406 1.22672 1.22953C0.435469 2.02219 0 3.07687 0 4.19766C0 4.91203 0.182344 5.61328 0.527344 6.23391L0.54 6.15656L0.565781 6.30609L0.528281 6.23438C0.457031 6.6375 0.420938 7.04625 0.420938 7.45641C0.420938 8.41266 0.608437 9.34219 0.973594 10.2164C1.32844 11.0677 1.83469 11.8266 2.49047 12.472C3.13687 13.1283 3.89484 13.6327 4.73719 13.9983C5.60859 14.3733 6.53531 14.5594 7.48969 14.5594C7.90172 14.5594 8.32359 14.5219 8.72531 14.4473L8.65078 14.4084L8.80078 14.437L8.71641 14.4558C9.34266 14.8116 10.0453 15 10.7752 15C11.8894 15 12.937 14.5687 13.7334 13.7733C14.5205 12.9862 14.9597 11.9288 14.9597 10.8052C14.9597 10.0941 14.7727 9.39141 14.4267 8.76375L14.4169 8.74547Z" fill="#637982"/>
</svg>
