<svg width="46" height="50" viewBox="0 0 46 50" fill="none" xmlns="http://www.w3.org/2000/svg">
<path d="M32.3068 38.8568C32.3636 38.7818 32.4159 38.7045 32.4636 38.6205C32.5091 38.5409 32.55 38.4614 32.5864 38.3795C32.7523 38.1341 32.9409 37.9045 33.15 37.6955C33.5705 37.275 34.0727 36.9364 34.6273 36.7068C35.1591 36.4864 35.7432 36.3636 36.3636 36.3636C36.9841 36.3636 37.5682 36.4864 38.1023 36.7068C38.6568 36.9364 39.1568 37.275 39.5795 37.6955C40.0023 38.1159 40.3386 38.6182 40.5682 39.1727C40.7864 39.7045 40.9091 40.2886 40.9091 40.9091C40.9091 41.5295 40.7864 42.1136 40.5659 42.6477C40.3364 43.2023 39.9977 43.7023 39.5773 44.125C39.1568 44.5477 38.6545 44.8841 38.1 45.1136C37.5682 45.3318 36.9841 45.4545 36.3636 45.4545C35.7432 45.4545 35.1591 45.3318 34.625 45.1114C34.0705 44.8818 33.5705 44.5432 33.1477 44.1227C32.725 43.7023 32.3886 43.2 32.1591 42.6455C31.9409 42.1136 31.8182 41.5295 31.8182 40.9091C31.8182 40.2886 31.9409 39.7045 32.1614 39.1705C32.2045 39.0636 32.2545 38.9591 32.3045 38.8568H32.3068ZM32.5023 11.4909C32.4818 11.4523 32.4614 11.4136 32.4409 11.3773C32.4182 11.3386 32.3955 11.3023 32.3705 11.2659C32.2932 11.125 32.2227 10.9795 32.1614 10.8295C31.9409 10.2955 31.8182 9.71136 31.8182 9.09091C31.8182 8.47045 31.9409 7.88636 32.1614 7.35227C32.3909 6.79773 32.7295 6.29773 33.15 5.875C33.5705 5.45227 34.0727 5.11591 34.6273 4.88636C35.1591 4.66818 35.7432 4.54545 36.3636 4.54545C36.9841 4.54545 37.5682 4.66818 38.1023 4.88864C38.6568 5.11818 39.1568 5.45682 39.5795 5.87727C40.0023 6.29773 40.3386 6.8 40.5682 7.35455C40.7864 7.88636 40.9091 8.47045 40.9091 9.09091C40.9091 9.71136 40.7864 10.2955 40.5659 10.8295C40.3364 11.3841 39.9977 11.8841 39.5773 12.3068C39.1568 12.7295 38.6545 13.0659 38.1 13.2955C37.5682 13.5136 36.9841 13.6364 36.3636 13.6364C35.7432 13.6364 35.1591 13.5136 34.625 13.2932C34.0705 13.0636 33.5705 12.725 33.1477 12.3045C32.9023 12.0591 32.6841 11.7864 32.5 11.4909H32.5023ZM12.9523 22.6C12.9727 22.6386 12.9932 22.6773 13.0136 22.7136C13.0364 22.7523 13.0591 22.7886 13.0841 22.825C13.1614 22.9659 13.2318 23.1114 13.2932 23.2614C13.5136 23.7955 13.6364 24.3795 13.6364 25C13.6364 25.6205 13.5136 26.2045 13.2932 26.7386C13.2318 26.8886 13.1614 27.0341 13.0841 27.175C13.0591 27.2114 13.0364 27.25 13.0136 27.2886C12.9909 27.3273 12.9705 27.3636 12.9523 27.4C12.7682 27.6955 12.55 27.9682 12.3045 28.2136C11.8841 28.6341 11.3818 28.9727 10.8273 29.2023C10.2955 29.4227 9.71136 29.5455 9.09091 29.5455C8.47045 29.5455 7.88636 29.4227 7.35227 29.2023C6.79773 28.9727 6.29773 28.6341 5.875 28.2136C5.45227 27.7932 5.11591 27.2909 4.88636 26.7364C4.66818 26.2045 4.54545 25.6205 4.54545 25C4.54545 24.3795 4.66818 23.7955 4.88864 23.2614C5.11818 22.7068 5.45682 22.2068 5.87727 21.7841C6.29773 21.3614 6.8 21.025 7.35455 20.7955C7.88636 20.5773 8.47045 20.4545 9.09091 20.4545C9.71136 20.4545 10.2955 20.5773 10.8295 20.7977C11.3841 21.0273 11.8841 21.3659 12.3068 21.7864C12.5523 22.0318 12.7705 22.3045 12.9545 22.6H12.9523ZM27.6136 11.5636L15.55 18.6023C15.5409 18.5909 15.5295 18.5818 15.5182 18.5705C14.6818 17.7364 13.6818 17.0591 12.5682 16.5977C11.4932 16.1545 10.3182 15.9091 9.09091 15.9091C7.86364 15.9091 6.68864 16.1545 5.61364 16.5977C4.5 17.0591 3.5 17.7341 2.66364 18.5705C1.82727 19.4068 1.15 20.4091 0.688636 21.5227C0.245455 22.5977 0 23.7727 0 25C0 26.2273 0.245455 27.4023 0.688636 28.4773C1.15 29.5909 1.825 30.5909 2.66136 31.4273C3.49773 32.2636 4.49773 32.9386 5.61136 33.4C6.68864 33.8455 7.86364 34.0909 9.09091 34.0909C10.3182 34.0909 11.4932 33.8455 12.5682 33.4023C13.6818 32.9409 14.6818 32.2659 15.5182 31.4295C15.5295 31.4182 15.5386 31.4091 15.55 31.3977L27.6159 38.4295C27.3932 39.2182 27.2727 40.05 27.2727 40.9091C27.2727 42.1364 27.5182 43.3114 27.9614 44.3864C28.4227 45.5 29.0977 46.5 29.9341 47.3364C30.7705 48.1727 31.7705 48.8477 32.8841 49.3091C33.9614 49.7545 35.1364 50 36.3636 50C37.5909 50 38.7659 49.7545 39.8409 49.3114C40.9545 48.85 41.9545 48.175 42.7909 47.3386C43.6273 46.5023 44.3023 45.5023 44.7636 44.3886C45.2091 43.3114 45.4545 42.1364 45.4545 40.9091C45.4545 39.6818 45.2091 38.5068 44.7659 37.4318C44.3045 36.3182 43.6295 35.3182 42.7932 34.4818C41.9568 33.6455 40.9568 32.9705 39.8432 32.5091C38.7659 32.0636 37.5909 31.8182 36.3636 31.8182C35.1364 31.8182 33.9614 32.0636 32.8864 32.5068C31.7727 32.9682 30.7727 33.6432 29.9364 34.4795C29.9295 34.4864 29.9205 34.4955 29.9136 34.5023L17.8409 27.4705C18.0636 26.6841 18.1818 25.8545 18.1818 25C18.1818 24.1455 18.0636 23.3159 17.8409 22.5273L29.9045 15.4864C29.9136 15.4977 29.925 15.5068 29.9364 15.5182C30.7727 16.3545 31.7727 17.0295 32.8864 17.4909C33.9614 17.9364 35.1364 18.1818 36.3636 18.1818C37.5909 18.1818 38.7659 17.9364 39.8409 17.4932C40.9545 17.0318 41.9545 16.3568 42.7909 15.5205C43.6273 14.6841 44.3023 13.6841 44.7636 12.5705C45.2091 11.4932 45.4545 10.3182 45.4545 9.09091C45.4545 7.86364 45.2091 6.68864 44.7659 5.61364C44.3045 4.5 43.6295 3.5 42.7932 2.66364C41.9568 1.82727 40.9568 1.15227 39.8432 0.690909C38.7659 0.245455 37.5909 0 36.3636 0C35.1364 0 33.9614 0.245455 32.8864 0.688636C31.7727 1.15 30.7727 1.825 29.9364 2.66136C29.1 3.49773 28.4227 4.5 27.9614 5.61364C27.5182 6.68864 27.2727 7.86364 27.2727 9.09091C27.2727 9.94545 27.3909 10.775 27.6136 11.5636Z" fill="#637982"/>
</svg>
