<svg width="19" height="15" viewBox="0 0 19 15" fill="none" xmlns="http://www.w3.org/2000/svg">
<path d="M15.6688 2.46128C15.529 2.6433 15.3748 2.81854 15.2055 2.98476C15.0303 3.15925 14.9446 3.41121 14.9965 3.66768C15.0243 3.80457 15.0416 3.97154 15.0423 4.14452C15.0423 5.20125 14.9115 6.17298 14.6738 7.05597C14.4542 7.87202 14.142 8.61436 13.7547 9.28074C12.9883 10.5999 11.9218 11.6296 10.6725 12.3411C10.031 12.7066 9.33978 12.9894 8.61549 13.1835C7.86036 13.3858 7.06913 13.4918 6.2591 13.4964C5.43102 13.5009 4.58414 13.3986 3.73725 13.1835C4.67439 12.912 5.58746 12.49 6.43961 11.9124C6.55017 11.8379 6.64494 11.7296 6.70436 11.5958C6.87283 11.2159 6.7021 10.7714 6.32228 10.603C5.24074 10.1224 4.45176 9.54999 3.87715 8.94454C3.33562 8.37443 2.97235 7.76371 2.73543 7.14773C2.59629 6.78596 2.50002 6.42043 2.43759 6.05791C2.35862 5.60213 2.3338 5.15086 2.34508 4.72065C2.36088 4.11068 2.44887 3.54734 2.55417 3.07952C2.84975 3.3375 3.15737 3.61052 3.48229 3.86022C4.26599 4.46267 5.15199 4.935 6.10793 5.24638C7.03228 5.54722 8.02131 5.69765 9.04495 5.67132C9.45184 5.66004 9.77751 5.3276 9.77751 4.9192V4.15881C9.776 4.02418 9.78428 3.89031 9.80308 3.75718C9.8467 3.44806 9.94448 3.14797 10.0942 2.87119C10.2386 2.60494 10.4326 2.359 10.6763 2.1469C10.9448 1.91299 11.2456 1.74527 11.5615 1.63922C11.8895 1.52941 12.2347 1.48654 12.5761 1.51061C12.9176 1.53467 13.253 1.62418 13.5629 1.77911C13.8608 1.92728 14.1353 2.13562 14.3692 2.40412C14.5587 2.61923 14.8573 2.717 15.1461 2.63277C15.3199 2.58237 15.4944 2.52521 15.6688 2.46128ZM16.8655 0.145514C16.3089 0.538119 15.72 0.841975 15.1454 1.05182C14.8663 0.80136 14.5595 0.594528 14.2346 0.432823C13.7457 0.189136 13.2169 0.0477383 12.6814 0.0101324C12.1459 -0.0274735 11.6029 0.039465 11.0847 0.213204C10.5853 0.380174 10.1107 0.646424 9.69026 1.01195C9.30894 1.34364 9.00208 1.73173 8.77268 2.15367C8.53501 2.5914 8.38158 3.06448 8.31389 3.54809C8.28606 3.74741 8.27252 3.94897 8.27327 4.14979C7.68437 4.10617 7.11576 3.9926 6.57349 3.81585C5.78376 3.55862 5.0497 3.16827 4.39912 2.66812C3.81623 2.21985 3.30027 1.68359 2.87006 1.07664C2.62938 0.738182 2.16006 0.658458 1.82086 0.898383C1.70578 0.980364 1.62004 1.08942 1.5689 1.20675C1.55611 1.23608 1.29287 1.83251 1.08604 2.74859C0.964195 3.29162 0.859651 3.95424 0.840848 4.68229C0.828062 5.19674 0.857394 5.74729 0.95517 6.31363C1.03264 6.7649 1.15448 7.2267 1.33198 7.68775C1.63584 8.47823 2.10215 9.25968 2.78658 9.9802C3.24462 10.4623 3.79441 10.9113 4.45026 11.3152C4.06593 11.4935 3.67257 11.6379 3.27545 11.7507C2.45264 11.9838 1.61026 12.0786 0.785191 12.0425C0.370022 12.0245 0.0187831 12.3456 0.000732275 12.7608C-0.0120537 13.0534 0.143635 13.3143 0.386569 13.4512C2.28867 14.508 4.31337 15.0104 6.26738 14.9998C7.20376 14.9946 8.1236 14.872 9.00508 14.6358C9.85122 14.4094 10.662 14.0785 11.4179 13.6475C12.892 12.8074 14.1526 11.5897 15.0559 10.0359C15.5109 9.25291 15.8734 8.38797 16.1269 7.44707C16.3999 6.42946 16.5466 5.3261 16.5466 4.14452C16.5458 4.01892 16.5406 3.89632 16.5293 3.77674C17.2859 2.93813 17.7898 1.94984 18.0305 0.932981C18.126 0.529094 17.8756 0.123702 17.4717 0.0281832C17.2536 -0.023713 17.0354 0.0259269 16.8647 0.145514H16.8655Z" fill="#637982"/>
</svg>
