<svg width="17" height="18" viewBox="0 0 17 18" fill="none" xmlns="http://www.w3.org/2000/svg">
<path d="M16.2005 17.1002V15.3C16.2005 14.6925 16.0796 14.11 15.8596 13.5795C15.6308 13.028 15.2973 12.5326 14.8829 12.1188C14.4684 11.705 13.973 11.3702 13.4222 11.1421C12.8903 10.9207 12.3078 10.7999 11.7003 10.7999H4.50017C3.89268 10.7999 3.31016 10.9207 2.77961 11.1407C2.22815 11.3696 1.7327 11.703 1.31893 12.1174C0.905164 12.5319 0.570368 13.0273 0.342221 13.5781C0.120823 14.11 0 14.6925 0 15.3V17.1002C0 17.597 0.40297 18 0.899764 18C1.39656 18 1.79953 17.597 1.79953 17.1002V15.3C1.79953 14.9328 1.87243 14.5845 2.00405 14.268C2.14107 13.9386 2.34155 13.6409 2.59062 13.3912C2.83969 13.1414 3.13804 12.9409 3.46743 12.8046C3.784 12.673 4.1323 12.6001 4.49949 12.6001H11.6996C12.0668 12.6001 12.4151 12.673 12.7317 12.8046C13.0611 12.9416 13.3588 13.1421 13.6085 13.3912C13.8583 13.6402 14.0587 13.9386 14.1951 14.268C14.3267 14.5845 14.3996 14.9328 14.3996 15.3V17.1002C14.3996 17.597 14.8026 18 15.2994 18C15.7962 18 16.1991 17.597 16.1991 17.1002H16.2005ZM12.6007 4.50017C12.6007 3.89268 12.4799 3.31016 12.2599 2.77962C12.031 2.22815 11.6976 1.7327 11.2832 1.31893C10.8687 0.905164 10.3733 0.570368 9.82248 0.342221C9.29058 0.120824 8.70807 0 8.10057 0C7.49308 0 6.91056 0.120824 6.38002 0.340871C5.82855 0.569693 5.33311 0.903139 4.91866 1.31758C4.50422 1.73203 4.17077 2.22747 3.94195 2.77894C3.72123 3.31016 3.60108 3.892 3.60108 4.49949C3.60108 5.10699 3.7219 5.6895 3.94195 6.22005C4.17077 6.77152 4.50422 7.26696 4.91866 7.68073C5.33311 8.0945 5.82855 8.42929 6.37935 8.65744C6.91124 8.87884 7.49376 8.99966 8.10125 8.99966C8.70874 8.99966 9.29126 8.87884 9.8218 8.65879C10.3733 8.42997 10.8687 8.09652 11.2825 7.68208C11.6963 7.26763 12.031 6.77219 12.2592 6.2214C12.4806 5.6895 12.6014 5.10699 12.6014 4.49949L12.6007 4.50017ZM10.8005 4.50017C10.8005 4.86736 10.7276 5.21566 10.596 5.53223C10.459 5.86163 10.2585 6.1593 10.0094 6.40905C9.76038 6.65879 9.46203 6.85926 9.13263 6.99561C8.81606 7.12724 8.46777 7.20013 8.10057 7.20013C7.73338 7.20013 7.38508 7.12724 7.06851 6.99561C6.73912 6.85859 6.44144 6.65812 6.1917 6.40905C5.94195 6.15997 5.74148 5.86163 5.60513 5.53223C5.47351 5.21566 5.40061 4.86736 5.40061 4.50017C5.40061 4.13297 5.47351 3.78468 5.60513 3.46811C5.74215 3.13871 5.94263 2.84104 6.1917 2.59129C6.44077 2.34155 6.73912 2.14107 7.06851 2.00473C7.38508 1.8731 7.73338 1.8002 8.10057 1.8002C8.46777 1.8002 8.81606 1.8731 9.13263 2.00473C9.46203 2.14175 9.7597 2.34222 10.0094 2.59129C10.2592 2.84036 10.4597 3.13871 10.596 3.46811C10.7276 3.78468 10.8005 4.13297 10.8005 4.50017Z" fill="white"/>
</svg>
