<svg width="15" height="15" viewBox="0 0 15 15" fill="none" xmlns="http://www.w3.org/2000/svg">
<path d="M10.8762 6.81849C10.7889 5.72617 10.5393 4.63998 10.1248 3.60016C9.84317 2.89445 9.48657 2.21124 9.05291 1.56143C9.32565 1.63235 9.59021 1.72167 9.84658 1.82804C10.5973 2.13896 11.273 2.59444 11.8389 3.16105C12.4056 3.72767 12.861 4.40338 13.172 5.15342C13.3881 5.67571 13.5347 6.23415 13.5988 6.81849H10.8762ZM9.05428 13.4386C9.47293 12.8106 9.82954 12.1356 10.1152 11.4237C10.5203 10.4146 10.7821 9.33042 10.8741 8.18219H13.5995C13.5347 8.76653 13.3888 9.32497 13.1726 9.84727C12.8617 10.598 12.4062 11.2737 11.8396 11.8396C11.273 12.4056 10.5973 12.8617 9.84727 13.1726C9.59157 13.2783 9.32701 13.3677 9.05496 13.4386H9.05428ZM4.12451 8.18219C4.21178 9.27451 4.46134 10.3607 4.8759 11.4005C5.15751 12.1062 5.51411 12.7894 5.94777 13.4392C5.67503 13.3683 5.41047 13.279 5.1541 13.1726C4.40338 12.8617 3.72767 12.4062 3.16173 11.8396C2.59512 11.273 2.13964 10.5973 1.82872 9.84727C1.61189 9.32497 1.46529 8.76653 1.4012 8.18219H4.12451ZM5.94641 1.56212C5.52775 2.1901 5.17114 2.86445 4.88545 3.57698C4.48043 4.58612 4.2186 5.67026 4.12587 6.81849H1.4012C1.46598 6.23415 1.61189 5.67571 1.82804 5.15342C2.13896 4.4027 2.59444 3.72699 3.16105 3.16105C3.72767 2.59512 4.40338 2.13896 5.15342 1.82804C5.40911 1.72235 5.67367 1.63303 5.94572 1.56212H5.94641ZM7.4983 0C6.48439 0 5.51548 0.201827 4.6318 0.56798C3.71335 0.948452 2.88763 1.50552 2.19692 2.19692C1.5062 2.88831 0.948452 3.71335 0.56798 4.6318C0.201827 5.51616 0 6.48575 0 7.50034C0 8.51493 0.201827 9.48452 0.56798 10.3689C0.948452 11.2873 1.50552 12.1131 2.19624 12.8038C2.88695 13.4945 3.71267 14.0522 4.63112 14.432C5.5148 14.7982 6.48302 15 7.49693 15C7.49761 15 7.49898 15 7.49966 15C7.50034 15 7.50102 15 7.5017 15C8.51561 15 9.48384 14.7982 10.3682 14.432C11.2866 14.0515 12.1124 13.4945 12.8031 12.8038C13.4938 12.1131 14.0515 11.2873 14.4313 10.3689C14.7989 9.48452 15.0007 8.51493 15.0007 7.50034C15.0007 6.48575 14.7989 5.51616 14.4327 4.6318C14.0522 3.71335 13.4952 2.88763 12.8044 2.19692C12.1137 1.5062 11.288 0.948452 10.3696 0.568662C9.4852 0.202509 8.51698 0.000681849 7.50307 0C7.50239 0 7.50102 0 7.50034 0C7.49966 0 7.49898 0 7.4983 0ZM9.50839 8.18219C9.42179 9.13337 9.19474 10.0559 8.84972 10.9157C8.5088 11.7653 8.05264 12.5549 7.50102 13.2626C6.92691 12.5249 6.47416 11.7264 6.14278 10.8946C5.79299 10.0177 5.57684 9.10269 5.49298 8.18151L9.50839 8.18219ZM7.49966 1.73803C8.07378 2.47579 8.52652 3.27424 8.8579 4.1061C9.20769 4.98295 9.42384 5.898 9.5077 6.81917H5.4923C5.57889 5.86799 5.80595 4.94545 6.15096 4.08564C6.49189 3.23606 6.94804 2.44647 7.49966 1.73872V1.73803Z" fill="#637982"/>
</svg>
